<svg width="106" height="13" viewBox="0 0 106 13" fill="none" xmlns="http://www.w3.org/2000/svg">
<path d="M3.77 4.8C4.72333 4.852 5.447 5.112 5.941 5.58C6.44367 6.03933 6.695 6.64167 6.695 7.387C6.695 7.907 6.56933 8.37067 6.318 8.778C6.06667 9.17667 5.694 9.493 5.2 9.727C4.706 9.961 4.10367 10.078 3.393 10.078C2.73433 10.078 2.11033 9.974 1.521 9.766C0.940333 9.54933 0.472333 9.26333 0.117 8.908L0.572 8.167C0.875333 8.479 1.27833 8.73467 1.781 8.934C2.28367 9.12467 2.821 9.22 3.393 9.22C4.13833 9.22 4.71467 9.05967 5.122 8.739C5.52933 8.40967 5.733 7.959 5.733 7.387C5.733 6.82367 5.52933 6.38167 5.122 6.061C4.71467 5.74033 4.09933 5.58 3.276 5.58H2.626V4.891L5.148 1.732H0.494V0.899999H6.344V1.563L3.77 4.8ZM12.2909 10.078C11.5889 10.078 10.9606 9.89167 10.4059 9.519C9.85989 9.14633 9.43089 8.61333 9.11889 7.92C8.81556 7.218 8.66389 6.39467 8.66389 5.45C8.66389 4.50533 8.81556 3.68633 9.11889 2.993C9.43089 2.291 9.85989 1.75367 10.4059 1.381C10.9606 1.00833 11.5889 0.822 12.2909 0.822C12.9929 0.822 13.6169 1.00833 14.1629 1.381C14.7176 1.75367 15.1509 2.291 15.4629 2.993C15.7749 3.68633 15.9309 4.50533 15.9309 5.45C15.9309 6.39467 15.7749 7.218 15.4629 7.92C15.1509 8.61333 14.7176 9.14633 14.1629 9.519C13.6169 9.89167 12.9929 10.078 12.2909 10.078ZM12.2909 9.22C12.8196 9.22 13.2832 9.07267 13.6819 8.778C14.0892 8.48333 14.4056 8.05433 14.6309 7.491C14.8562 6.92767 14.9689 6.24733 14.9689 5.45C14.9689 4.65267 14.8562 3.97233 14.6309 3.409C14.4056 2.84567 14.0892 2.41667 13.6819 2.122C13.2832 1.82733 12.8196 1.68 12.2909 1.68C11.7622 1.68 11.2942 1.82733 10.8869 2.122C10.4882 2.41667 10.1762 2.84567 9.95089 3.409C9.72556 3.97233 9.61289 4.65267 9.61289 5.45C9.61289 6.24733 9.72556 6.92767 9.95089 7.491C10.1762 8.05433 10.4882 8.48333 10.8869 8.778C11.2942 9.07267 11.7622 9.22 12.2909 9.22ZM28.2267 5.307C28.8593 5.437 29.3403 5.69267 29.6697 6.074C29.999 6.44667 30.1637 6.93633 30.1637 7.543C30.1637 8.33167 29.882 8.93833 29.3187 9.363C28.764 9.78767 27.945 10 26.8617 10H22.8317V0.899999H26.6147C27.5853 0.899999 28.3437 1.09933 28.8897 1.498C29.4357 1.89667 29.7087 2.473 29.7087 3.227C29.7087 3.73833 29.5787 4.17167 29.3187 4.527C29.0587 4.87367 28.6947 5.13367 28.2267 5.307ZM23.7807 5.021H26.5627C27.2647 5.021 27.802 4.878 28.1747 4.592C28.556 4.306 28.7467 3.89 28.7467 3.344C28.7467 2.798 28.556 2.382 28.1747 2.096C27.802 1.81 27.2647 1.667 26.5627 1.667H23.7807V5.021ZM26.8617 9.233C28.4303 9.233 29.2147 8.648 29.2147 7.478C29.2147 6.334 28.4303 5.762 26.8617 5.762H23.7807V9.233H26.8617ZM33.219 0.899999H34.168V8.44L39.992 0.899999H40.863V10H39.914V2.473L34.09 10H33.219V0.899999ZM52.8032 9.168V12.041H51.9062V10H43.9632L43.9502 12.041H43.0532L43.0662 9.168H43.5212C44.1192 9.13333 44.5352 8.661 44.7692 7.751C45.0032 6.83233 45.1462 5.53233 45.1982 3.851L45.3022 0.899999H51.4382V9.168H52.8032ZM46.0562 3.942C46.0128 5.32867 45.9045 6.47267 45.7312 7.374C45.5665 8.26667 45.2848 8.86467 44.8862 9.168H50.4892V1.732H46.1342L46.0562 3.942ZM62.8124 5.827H60.9274V10H59.9914V5.827H58.0934L55.3114 10H54.1934L57.3134 5.307L54.4274 0.899999H55.4674L58.0804 4.982H59.9914V0.899999H60.9274V4.982H62.8124L65.4384 0.899999H66.4784L63.5924 5.307L66.7124 10H65.5944L62.8124 5.827ZM75.3227 9.168V10H68.8877V0.899999H75.1277V1.732H69.8497V4.969H74.5557V5.788H69.8497V9.168H75.3227ZM84.061 1.732H80.863V10H79.914V1.732H76.716V0.899999H84.061V1.732ZM90.2637 10.078C89.3623 10.078 88.5433 9.87867 87.8067 9.48C87.0787 9.07267 86.5067 8.518 86.0907 7.816C85.6833 7.114 85.4797 6.32533 85.4797 5.45C85.4797 4.57467 85.6833 3.786 86.0907 3.084C86.5067 2.382 87.0787 1.83167 87.8067 1.433C88.5433 1.02567 89.3623 0.822 90.2637 0.822C91.165 0.822 91.9753 1.02133 92.6947 1.42C93.4227 1.81867 93.9947 2.37333 94.4107 3.084C94.8267 3.786 95.0347 4.57467 95.0347 5.45C95.0347 6.32533 94.8267 7.11833 94.4107 7.829C93.9947 8.531 93.4227 9.08133 92.6947 9.48C91.9753 9.87867 91.165 10.078 90.2637 10.078ZM90.2637 9.22C90.983 9.22 91.633 9.05967 92.2137 8.739C92.7943 8.40967 93.2493 7.959 93.5787 7.387C93.908 6.80633 94.0727 6.16067 94.0727 5.45C94.0727 4.73933 93.908 4.098 93.5787 3.526C93.2493 2.94533 92.7943 2.49467 92.2137 2.174C91.633 1.84467 90.983 1.68 90.2637 1.68C89.5443 1.68 88.89 1.84467 88.3007 2.174C87.72 2.49467 87.2607 2.94533 86.9227 3.526C86.5933 4.098 86.4287 4.73933 86.4287 5.45C86.4287 6.16067 86.5933 6.80633 86.9227 7.387C87.2607 7.959 87.72 8.40967 88.3007 8.739C88.89 9.05967 89.5443 9.22 90.2637 9.22ZM103.375 5.307C104.008 5.437 104.489 5.69267 104.818 6.074C105.148 6.44667 105.312 6.93633 105.312 7.543C105.312 8.33167 105.031 8.93833 104.467 9.363C103.913 9.78767 103.094 10 102.01 10H97.9803V0.899999H101.763C102.734 0.899999 103.492 1.09933 104.038 1.498C104.584 1.89667 104.857 2.473 104.857 3.227C104.857 3.73833 104.727 4.17167 104.467 4.527C104.207 4.87367 103.843 5.13367 103.375 5.307ZM98.9293 5.021H101.711C102.413 5.021 102.951 4.878 103.323 4.592C103.705 4.306 103.895 3.89 103.895 3.344C103.895 2.798 103.705 2.382 103.323 2.096C102.951 1.81 102.413 1.667 101.711 1.667H98.9293V5.021ZM102.01 9.233C103.579 9.233 104.363 8.648 104.363 7.478C104.363 6.334 103.579 5.762 102.01 5.762H98.9293V9.233H102.01Z" fill="#E4E5EA"/>
</svg>
