<svg width="123" height="13" viewBox="0 0 123 13" fill="none" xmlns="http://www.w3.org/2000/svg">
<path d="M9.985 0.899999V10H9.062V2.72L5.487 8.843H5.032L1.457 2.759V10H0.534V0.899999H1.327L5.279 7.647L9.192 0.899999H9.985ZM20.1366 9.168V10H13.7016V0.899999H19.9416V1.732H14.6636V4.969H19.3696V5.788H14.6636V9.168H20.1366ZM26.8481 10.078C25.9468 10.078 25.1321 9.87867 24.4041 9.48C23.6848 9.08133 23.1171 8.531 22.7011 7.829C22.2938 7.11833 22.0901 6.32533 22.0901 5.45C22.0901 4.57467 22.2938 3.786 22.7011 3.084C23.1171 2.37333 23.6891 1.81867 24.4171 1.42C25.1451 1.02133 25.9598 0.822 26.8611 0.822C27.5371 0.822 28.1611 0.934666 28.7331 1.16C29.3051 1.38533 29.7905 1.71467 30.1891 2.148L29.5781 2.759C28.8675 2.03967 27.9705 1.68 26.8871 1.68C26.1678 1.68 25.5135 1.84467 24.9241 2.174C24.3348 2.50333 23.8711 2.954 23.5331 3.526C23.2038 4.098 23.0391 4.73933 23.0391 5.45C23.0391 6.16067 23.2038 6.802 23.5331 7.374C23.8711 7.946 24.3348 8.39667 24.9241 8.726C25.5135 9.05533 26.1678 9.22 26.8871 9.22C27.9791 9.22 28.8761 8.856 29.5781 8.128L30.1891 8.739C29.7905 9.17233 29.3008 9.506 28.7201 9.74C28.1481 9.96533 27.5241 10.078 26.8481 10.078ZM39.0453 0.899999V10H38.0963V7.244H35.3793C35.2579 7.244 35.0846 7.23533 34.8593 7.218L32.9483 10H31.9213L33.9883 7.049C33.3209 6.84967 32.8096 6.49867 32.4543 5.996C32.0989 5.48467 31.9213 4.86067 31.9213 4.124C31.9213 3.10133 32.2419 2.30833 32.8833 1.745C33.5333 1.18167 34.4086 0.899999 35.5093 0.899999H39.0453ZM32.8833 4.098C32.8833 4.84333 33.0999 5.41967 33.5333 5.827C33.9753 6.22567 34.6166 6.425 35.4573 6.425H38.0963V1.732H35.5483C34.6989 1.732 34.0403 1.93567 33.5723 2.343C33.1129 2.74167 32.8833 3.32667 32.8833 4.098ZM51.6088 9.168V12.132H50.7118V10H42.7688V0.899999H43.7178V9.168H49.2168V0.899999H50.1658V9.168H51.6088ZM64.048 7.569H58.978L57.886 10H56.885L61.045 0.899999H61.994L66.154 10H65.14L64.048 7.569ZM63.697 6.789L61.513 1.901L59.329 6.789H63.697ZM77.9469 0.899999V10H77.0239V2.72L73.4489 8.843H72.9939L69.4189 2.759V10H68.4959V0.899999H69.2889L73.2409 7.647L77.1539 0.899999H77.9469ZM85.5399 10.078C84.6385 10.078 83.8195 9.87867 83.0829 9.48C82.3549 9.07267 81.7829 8.518 81.3669 7.816C80.9595 7.114 80.7559 6.32533 80.7559 5.45C80.7559 4.57467 80.9595 3.786 81.3669 3.084C81.7829 2.382 82.3549 1.83167 83.0829 1.433C83.8195 1.02567 84.6385 0.822 85.5399 0.822C86.4412 0.822 87.2515 1.02133 87.9709 1.42C88.6989 1.81867 89.2709 2.37333 89.6869 3.084C90.1029 3.786 90.3109 4.57467 90.3109 5.45C90.3109 6.32533 90.1029 7.11833 89.6869 7.829C89.2709 8.531 88.6989 9.08133 87.9709 9.48C87.2515 9.87867 86.4412 10.078 85.5399 10.078ZM85.5399 9.22C86.2592 9.22 86.9092 9.05967 87.4899 8.739C88.0705 8.40967 88.5255 7.959 88.8549 7.387C89.1842 6.80633 89.3489 6.16067 89.3489 5.45C89.3489 4.73933 89.1842 4.098 88.8549 3.526C88.5255 2.94533 88.0705 2.49467 87.4899 2.174C86.9092 1.84467 86.2592 1.68 85.5399 1.68C84.8205 1.68 84.1662 1.84467 83.5769 2.174C82.9962 2.49467 82.5369 2.94533 82.1989 3.526C81.8695 4.098 81.7049 4.73933 81.7049 5.45C81.7049 6.16067 81.8695 6.80633 82.1989 7.387C82.5369 7.959 82.9962 8.40967 83.5769 8.739C84.1662 9.05967 84.8205 9.22 85.5399 9.22ZM97.0692 10.078C96.1678 10.078 95.3532 9.87867 94.6252 9.48C93.9058 9.08133 93.3382 8.531 92.9222 7.829C92.5148 7.11833 92.3112 6.32533 92.3112 5.45C92.3112 4.57467 92.5148 3.786 92.9222 3.084C93.3382 2.37333 93.9102 1.81867 94.6382 1.42C95.3662 1.02133 96.1808 0.822 97.0822 0.822C97.7582 0.822 98.3822 0.934666 98.9542 1.16C99.5262 1.38533 100.011 1.71467 100.41 2.148L99.7992 2.759C99.0885 2.03967 98.1915 1.68 97.1082 1.68C96.3888 1.68 95.7345 1.84467 95.1452 2.174C94.5558 2.50333 94.0922 2.954 93.7542 3.526C93.4248 4.098 93.2602 4.73933 93.2602 5.45C93.2602 6.16067 93.4248 6.802 93.7542 7.374C94.0922 7.946 94.5558 8.39667 95.1452 8.726C95.7345 9.05533 96.3888 9.22 97.1082 9.22C98.2002 9.22 99.0972 8.856 99.7992 8.128L100.41 8.739C100.011 9.17233 99.5218 9.506 98.9412 9.74C98.3692 9.96533 97.7452 10.078 97.0692 10.078ZM109.325 10L107.245 7.075C107.011 7.101 106.768 7.114 106.517 7.114H104.073V10H103.111V0.899999H106.517C107.678 0.899999 108.588 1.17733 109.247 1.732C109.906 2.28667 110.235 3.04933 110.235 4.02C110.235 4.73067 110.053 5.333 109.689 5.827C109.334 6.31233 108.822 6.66333 108.155 6.88L110.378 10H109.325ZM106.491 6.295C107.392 6.295 108.081 6.09567 108.558 5.697C109.035 5.29833 109.273 4.73933 109.273 4.02C109.273 3.28333 109.035 2.72 108.558 2.33C108.081 1.93133 107.392 1.732 106.491 1.732H104.073V6.295H106.491ZM122.606 0.899999V10H121.683V2.72L118.108 8.843H117.653L114.078 2.759V10H113.155V0.899999H113.948L117.9 7.647L121.813 0.899999H122.606Z" fill="#E4E5EA"/>
</svg>
