<svg width="93" height="11" viewBox="0 0 93 11" fill="none" xmlns="http://www.w3.org/2000/svg">
<path d="M0.482 0.899999H4.187C5.149 0.899999 5.99833 1.095 6.735 1.485C7.47167 1.86633 8.04367 2.40367 8.451 3.097C8.85833 3.78167 9.062 4.566 9.062 5.45C9.062 6.334 8.85833 7.12267 8.451 7.816C8.04367 8.50067 7.47167 9.038 6.735 9.428C5.99833 9.80933 5.149 10 4.187 10H0.482V0.899999ZM4.135 9.168C4.93233 9.168 5.63 9.012 6.228 8.7C6.826 8.37933 7.28967 7.94167 7.619 7.387C7.94833 6.82367 8.113 6.178 8.113 5.45C8.113 4.722 7.94833 4.08067 7.619 3.526C7.28967 2.96267 6.826 2.525 6.228 2.213C5.63 1.89233 4.93233 1.732 4.135 1.732H1.444V9.168H4.135ZM17.4523 7.569H12.3823L11.2903 10H10.2893L14.4493 0.899999H15.3983L19.5583 10H18.5443L17.4523 7.569ZM17.1013 6.789L14.9173 1.901L12.7333 6.789H17.1013ZM24.2226 10.078C23.5466 10.078 22.8966 9.96967 22.2726 9.753C21.6573 9.53633 21.1806 9.25033 20.8426 8.895L21.2196 8.154C21.549 8.48333 21.9866 8.752 22.5326 8.96C23.0786 9.15933 23.642 9.259 24.2226 9.259C25.0373 9.259 25.6483 9.11167 26.0556 8.817C26.463 8.51367 26.6666 8.12367 26.6666 7.647C26.6666 7.283 26.554 6.99267 26.3286 6.776C26.112 6.55933 25.8433 6.39467 25.5226 6.282C25.202 6.16067 24.7556 6.03067 24.1836 5.892C23.499 5.71867 22.953 5.554 22.5456 5.398C22.1383 5.23333 21.7873 4.98633 21.4926 4.657C21.2066 4.32767 21.0636 3.88133 21.0636 3.318C21.0636 2.85867 21.185 2.44267 21.4276 2.07C21.6703 1.68867 22.043 1.38533 22.5456 1.16C23.0483 0.934666 23.6723 0.822 24.4176 0.822C24.9376 0.822 25.4446 0.895666 25.9386 1.043C26.4413 1.18167 26.8746 1.37667 27.2386 1.628L26.9136 2.395C26.5323 2.14367 26.125 1.95733 25.6916 1.836C25.2583 1.706 24.8336 1.641 24.4176 1.641C23.6203 1.641 23.018 1.797 22.6106 2.109C22.212 2.41233 22.0126 2.80667 22.0126 3.292C22.0126 3.656 22.121 3.95067 22.3376 4.176C22.563 4.39267 22.8403 4.56167 23.1696 4.683C23.5076 4.79567 23.9583 4.92133 24.5216 5.06C25.189 5.22467 25.7263 5.38933 26.1336 5.554C26.5496 5.71 26.9006 5.95267 27.1866 6.282C27.4726 6.60267 27.6156 7.04033 27.6156 7.595C27.6156 8.05433 27.49 8.47467 27.2386 8.856C26.996 9.22867 26.619 9.52767 26.1076 9.753C25.5963 9.96967 24.968 10.078 24.2226 10.078ZM37.9667 0.899999V10H37.0177V5.801H31.3237V10H30.3617V0.899999H31.3237V4.956H37.0177V0.899999H37.9667ZM47.3199 5.307C47.9179 5.437 48.3772 5.697 48.6979 6.087C49.0272 6.46833 49.1919 6.96233 49.1919 7.569C49.1919 8.349 48.9015 8.95133 48.3209 9.376C47.7489 9.792 46.8995 10 45.7729 10H41.5869V0.899999H45.5129C46.5269 0.899999 47.3112 1.10367 47.8659 1.511C48.4292 1.91833 48.7109 2.49467 48.7109 3.24C48.7109 3.74267 48.5852 4.17167 48.3339 4.527C48.0912 4.87367 47.7532 5.13367 47.3199 5.307ZM42.5489 1.693V4.995H45.4479C46.1845 4.995 46.7522 4.85633 47.1509 4.579C47.5495 4.293 47.7489 3.88133 47.7489 3.344C47.7489 2.80667 47.5495 2.39933 47.1509 2.122C46.7522 1.836 46.1845 1.693 45.4479 1.693H42.5489ZM45.7599 9.207C46.5745 9.207 47.1899 9.06833 47.6059 8.791C48.0219 8.51367 48.2299 8.08033 48.2299 7.491C48.2299 6.35567 47.4065 5.788 45.7599 5.788H42.5489V9.207H45.7599ZM56.0157 10.078C55.1143 10.078 54.2953 9.87867 53.5587 9.48C52.8307 9.07267 52.2587 8.518 51.8427 7.816C51.4353 7.114 51.2317 6.32533 51.2317 5.45C51.2317 4.57467 51.4353 3.786 51.8427 3.084C52.2587 2.382 52.8307 1.83167 53.5587 1.433C54.2953 1.02567 55.1143 0.822 56.0157 0.822C56.917 0.822 57.7273 1.02133 58.4467 1.42C59.1747 1.81867 59.7467 2.37333 60.1627 3.084C60.5787 3.786 60.7867 4.57467 60.7867 5.45C60.7867 6.32533 60.5787 7.11833 60.1627 7.829C59.7467 8.531 59.1747 9.08133 58.4467 9.48C57.7273 9.87867 56.917 10.078 56.0157 10.078ZM56.0157 9.22C56.735 9.22 57.385 9.05967 57.9657 8.739C58.5463 8.40967 59.0013 7.959 59.3307 7.387C59.66 6.80633 59.8247 6.16067 59.8247 5.45C59.8247 4.73933 59.66 4.098 59.3307 3.526C59.0013 2.94533 58.5463 2.49467 57.9657 2.174C57.385 1.84467 56.735 1.68 56.0157 1.68C55.2963 1.68 54.642 1.84467 54.0527 2.174C53.472 2.49467 53.0127 2.94533 52.6747 3.526C52.3453 4.098 52.1807 4.73933 52.1807 5.45C52.1807 6.16067 52.3453 6.80633 52.6747 7.387C53.0127 7.959 53.472 8.40967 54.0527 8.739C54.642 9.05967 55.2963 9.22 56.0157 9.22ZM69.173 7.569H64.103L63.011 10H62.01L66.17 0.899999H67.119L71.279 10H70.265L69.173 7.569ZM68.822 6.789L66.638 1.901L64.454 6.789H68.822ZM79.6483 10L77.5683 7.075C77.3343 7.101 77.0917 7.114 76.8403 7.114H74.3963V10H73.4343V0.899999H76.8403C78.0017 0.899999 78.9117 1.17733 79.5703 1.732C80.229 2.28667 80.5583 3.04933 80.5583 4.02C80.5583 4.73067 80.3763 5.333 80.0123 5.827C79.657 6.31233 79.1457 6.66333 78.4783 6.88L80.7013 10H79.6483ZM76.8143 6.295C77.7157 6.295 78.4047 6.09567 78.8813 5.697C79.358 5.29833 79.5963 4.73933 79.5963 4.02C79.5963 3.28333 79.358 2.72 78.8813 2.33C78.4047 1.93133 77.7157 1.732 76.8143 1.732H74.3963V6.295H76.8143ZM83.4789 0.899999H87.1839C88.1459 0.899999 88.9952 1.095 89.7319 1.485C90.4685 1.86633 91.0405 2.40367 91.4479 3.097C91.8552 3.78167 92.0589 4.566 92.0589 5.45C92.0589 6.334 91.8552 7.12267 91.4479 7.816C91.0405 8.50067 90.4685 9.038 89.7319 9.428C88.9952 9.80933 88.1459 10 87.1839 10H83.4789V0.899999ZM87.1319 9.168C87.9292 9.168 88.6269 9.012 89.2249 8.7C89.8229 8.37933 90.2865 7.94167 90.6159 7.387C90.9452 6.82367 91.1099 6.178 91.1099 5.45C91.1099 4.722 90.9452 4.08067 90.6159 3.526C90.2865 2.96267 89.8229 2.525 89.2249 2.213C88.6269 1.89233 87.9292 1.732 87.1319 1.732H84.4409V9.168H87.1319Z" fill="#E4E5EA"/>
</svg>
