<svg width="184" height="28" viewBox="0 0 184 28" fill="none" xmlns="http://www.w3.org/2000/svg">
<path d="M10.25 27.358C8.11932 27.358 6.29545 26.9361 4.77841 26.0923C3.26136 25.2401 2.09801 24.0554 1.28835 22.5384C0.478693 21.0128 0.0738637 19.2443 0.0738637 17.233C0.0738637 15.2216 0.478693 13.4574 1.28835 11.9403C2.09801 10.4148 3.26136 9.23011 4.77841 8.38636C6.29545 7.53409 8.11932 7.10795 10.25 7.10795C12.1761 7.10795 13.8423 7.45739 15.2486 8.15625C16.6634 8.84659 17.7585 9.8267 18.5341 11.0966C19.3097 12.358 19.7017 13.8409 19.7102 15.5455H13.1648C13.071 14.5142 12.7727 13.7301 12.2699 13.1932C11.7756 12.6477 11.1364 12.375 10.3523 12.375C9.73864 12.375 9.20171 12.554 8.74148 12.9119C8.28125 13.2614 7.9233 13.794 7.66761 14.5099C7.41193 15.2173 7.28409 16.108 7.28409 17.1818C7.28409 18.2557 7.41193 19.1506 7.66761 19.8665C7.9233 20.5739 8.28125 21.1065 8.74148 21.4645C9.20171 21.8139 9.73864 21.9886 10.3523 21.9886C10.8722 21.9886 11.3324 21.8693 11.733 21.6307C12.1335 21.3835 12.4574 21.0256 12.7045 20.5568C12.9602 20.0795 13.1136 19.5 13.1648 18.8182H19.7102C19.6847 20.5483 19.2884 22.0568 18.5213 23.3438C17.7543 24.6222 16.6676 25.6108 15.2614 26.3097C13.8636 27.0085 12.1932 27.358 10.25 27.358ZM36.3391 27L28.6175 0.818181H36.5437L40.1232 16.9261H40.3278L44.5721 0.818181H50.8107L55.055 16.9773H55.2596L58.8391 0.818181H66.7653L59.0437 27H52.2425L47.7937 12.375H47.5891L43.1403 27H36.3391ZM69.0664 27V0.818181H87.9357V6.54545H76.1744V11.0455H86.9641V16.7727H76.1744V21.2727H87.8846V27H69.0664ZM91.4609 27V0.818181H98.5689V21.2727H109.154V27H91.4609ZM112.027 27V0.818181H123.38C125.374 0.818181 127.049 1.08665 128.404 1.62358C129.767 2.16051 130.794 2.91903 131.485 3.89915C132.184 4.87926 132.533 6.03409 132.533 7.36364C132.533 8.3267 132.32 9.20454 131.894 9.99716C131.476 10.7898 130.888 11.4545 130.13 11.9915C129.371 12.5199 128.485 12.8864 127.471 13.0909V13.3466C128.596 13.3892 129.618 13.6747 130.539 14.2031C131.459 14.723 132.192 15.4432 132.738 16.3636C133.283 17.2756 133.556 18.3494 133.556 19.5852C133.556 21.017 133.181 22.2912 132.431 23.4077C131.689 24.5241 130.632 25.402 129.26 26.0412C127.888 26.6804 126.252 27 124.351 27H112.027ZM119.135 21.3239H122.459C123.652 21.3239 124.547 21.1023 125.144 20.6591C125.74 20.2074 126.039 19.5426 126.039 18.6648C126.039 18.0511 125.898 17.5312 125.617 17.1051C125.336 16.679 124.935 16.3551 124.415 16.1335C123.904 15.9119 123.286 15.8011 122.561 15.8011H119.135V21.3239ZM119.135 11.4034H122.05C122.672 11.4034 123.222 11.3054 123.699 11.1094C124.176 10.9134 124.547 10.6321 124.811 10.2656C125.084 9.89062 125.221 9.43466 125.221 8.89773C125.221 8.08807 124.931 7.47017 124.351 7.04403C123.772 6.60938 123.039 6.39205 122.152 6.39205H119.135V11.4034ZM136.074 27V0.818181H154.944V6.54545H143.182V11.0455H153.972V16.7727H143.182V21.2727H154.892V27H136.074ZM166.088 0.818181L170.384 8.4375H170.588L174.935 0.818181H182.861L175.037 13.9091L183.168 27H175.037L170.588 19.2273H170.384L165.935 27H157.855L165.884 13.9091L158.111 0.818181H166.088Z" fill="#E4E5EA"/>
<path d="M10.25 27.358C8.11932 27.358 6.29545 26.9361 4.77841 26.0923C3.26136 25.2401 2.09801 24.0554 1.28835 22.5384C0.478693 21.0128 0.0738637 19.2443 0.0738637 17.233C0.0738637 15.2216 0.478693 13.4574 1.28835 11.9403C2.09801 10.4148 3.26136 9.23011 4.77841 8.38636C6.29545 7.53409 8.11932 7.10795 10.25 7.10795C12.1761 7.10795 13.8423 7.45739 15.2486 8.15625C16.6634 8.84659 17.7585 9.8267 18.5341 11.0966C19.3097 12.358 19.7017 13.8409 19.7102 15.5455H13.1648C13.071 14.5142 12.7727 13.7301 12.2699 13.1932C11.7756 12.6477 11.1364 12.375 10.3523 12.375C9.73864 12.375 9.20171 12.554 8.74148 12.9119C8.28125 13.2614 7.9233 13.794 7.66761 14.5099C7.41193 15.2173 7.28409 16.108 7.28409 17.1818C7.28409 18.2557 7.41193 19.1506 7.66761 19.8665C7.9233 20.5739 8.28125 21.1065 8.74148 21.4645C9.20171 21.8139 9.73864 21.9886 10.3523 21.9886C10.8722 21.9886 11.3324 21.8693 11.733 21.6307C12.1335 21.3835 12.4574 21.0256 12.7045 20.5568C12.9602 20.0795 13.1136 19.5 13.1648 18.8182H19.7102C19.6847 20.5483 19.2884 22.0568 18.5213 23.3438C17.7543 24.6222 16.6676 25.6108 15.2614 26.3097C13.8636 27.0085 12.1932 27.358 10.25 27.358ZM36.3391 27L28.6175 0.818181H36.5437L40.1232 16.9261H40.3278L44.5721 0.818181H50.8107L55.055 16.9773H55.2596L58.8391 0.818181H66.7653L59.0437 27H52.2425L47.7937 12.375H47.5891L43.1403 27H36.3391ZM69.0664 27V0.818181H87.9357V6.54545H76.1744V11.0455H86.9641V16.7727H76.1744V21.2727H87.8846V27H69.0664ZM91.4609 27V0.818181H98.5689V21.2727H109.154V27H91.4609ZM112.027 27V0.818181H123.38C125.374 0.818181 127.049 1.08665 128.404 1.62358C129.767 2.16051 130.794 2.91903 131.485 3.89915C132.184 4.87926 132.533 6.03409 132.533 7.36364C132.533 8.3267 132.32 9.20454 131.894 9.99716C131.476 10.7898 130.888 11.4545 130.13 11.9915C129.371 12.5199 128.485 12.8864 127.471 13.0909V13.3466C128.596 13.3892 129.618 13.6747 130.539 14.2031C131.459 14.723 132.192 15.4432 132.738 16.3636C133.283 17.2756 133.556 18.3494 133.556 19.5852C133.556 21.017 133.181 22.2912 132.431 23.4077C131.689 24.5241 130.632 25.402 129.26 26.0412C127.888 26.6804 126.252 27 124.351 27H112.027ZM119.135 21.3239H122.459C123.652 21.3239 124.547 21.1023 125.144 20.6591C125.74 20.2074 126.039 19.5426 126.039 18.6648C126.039 18.0511 125.898 17.5312 125.617 17.1051C125.336 16.679 124.935 16.3551 124.415 16.1335C123.904 15.9119 123.286 15.8011 122.561 15.8011H119.135V21.3239ZM119.135 11.4034H122.05C122.672 11.4034 123.222 11.3054 123.699 11.1094C124.176 10.9134 124.547 10.6321 124.811 10.2656C125.084 9.89062 125.221 9.43466 125.221 8.89773C125.221 8.08807 124.931 7.47017 124.351 7.04403C123.772 6.60938 123.039 6.39205 122.152 6.39205H119.135V11.4034ZM136.074 27V0.818181H154.944V6.54545H143.182V11.0455H153.972V16.7727H143.182V21.2727H154.892V27H136.074ZM166.088 0.818181L170.384 8.4375H170.588L174.935 0.818181H182.861L175.037 13.9091L183.168 27H175.037L170.588 19.2273H170.384L165.935 27H157.855L165.884 13.9091L158.111 0.818181H166.088Z" fill="url(#paint0_linear_0_93)"/>
<defs>
<linearGradient id="paint0_linear_0_93" x1="-7.85259" y1="-0.000410926" x2="226.332" y2="34.532" gradientUnits="userSpaceOnUse">
<stop offset="0.242073" stop-color="#FCB045"/>
<stop offset="1" stop-color="#FF3F78"/>
</linearGradient>
</defs>
</svg>
