<svg width="133" height="18" viewBox="0 0 133 18" fill="none" xmlns="http://www.w3.org/2000/svg">
<path d="M7.89648 4.34801C7.8283 3.7429 7.54705 3.27415 7.05273 2.94176C6.55842 2.60511 5.93626 2.43679 5.18626 2.43679C4.64933 2.43679 4.18484 2.52202 3.79279 2.69247C3.40075 2.85866 3.09606 3.08878 2.87873 3.38281C2.66566 3.67258 2.55913 4.00284 2.55913 4.37358C2.55913 4.68466 2.63157 4.95312 2.77646 5.17898C2.9256 5.40483 3.1195 5.59446 3.35813 5.74787C3.60103 5.89702 3.86097 6.02273 4.13796 6.125C4.41495 6.22301 4.68129 6.30398 4.93697 6.3679L6.21538 6.70028C6.63299 6.80256 7.06126 6.94105 7.50018 7.11577C7.9391 7.29048 8.34606 7.5206 8.72106 7.80611C9.09606 8.09162 9.39862 8.44531 9.62873 8.86719C9.8631 9.28906 9.98029 9.79403 9.98029 10.3821C9.98029 11.1236 9.78853 11.782 9.40501 12.3572C9.02575 12.9325 8.4739 13.3864 7.74947 13.7188C7.0293 14.0511 6.15785 14.2173 5.13512 14.2173C4.15501 14.2173 3.307 14.0618 2.59109 13.7507C1.87518 13.4396 1.31481 12.9986 0.909979 12.4276C0.505149 11.8523 0.281428 11.1705 0.238814 10.3821H2.22035C2.2587 10.8551 2.41211 11.2493 2.68058 11.5646C2.9533 11.8757 3.3006 12.108 3.72248 12.2614C4.14862 12.4105 4.61523 12.4851 5.12234 12.4851C5.68058 12.4851 6.17702 12.3977 6.61168 12.223C7.0506 12.044 7.39577 11.7969 7.6472 11.4815C7.89862 11.1619 8.02433 10.7891 8.02433 10.3629C8.02433 9.97514 7.91353 9.65767 7.69194 9.41051C7.47461 9.16335 7.17845 8.95881 6.80345 8.79688C6.43271 8.63494 6.01296 8.49219 5.54421 8.36861L3.99734 7.94673C2.94904 7.66122 2.11808 7.24148 1.50444 6.6875C0.895064 6.13352 0.590376 5.40057 0.590376 4.48864C0.590376 3.73437 0.794922 3.07599 1.20401 2.51349C1.6131 1.95099 2.16708 1.5142 2.86594 1.20312C3.56481 0.887784 4.35316 0.730113 5.231 0.730113C6.11737 0.730113 6.89933 0.885653 7.57688 1.19673C8.2587 1.50781 8.79563 1.93608 9.18768 2.48153C9.57972 3.02273 9.78427 3.64489 9.80131 4.34801H7.89648ZM13.2406 14V0.909091H15.2157V7.16051H15.3755L20.8663 0.909091H23.3528L18.0729 6.80256L23.3719 14H20.9941L16.7626 8.15128L15.2157 9.92827V14H13.2406ZM25.0837 0.909091H27.3273L30.7471 6.86009H30.8877L34.3075 0.909091H36.5511L31.8018 8.8608V14H29.833V8.8608L25.0837 0.909091ZM39.3159 14V0.909091H43.9821C45.0006 0.909091 45.8444 1.09446 46.5134 1.4652C47.1824 1.83594 47.6831 2.34304 48.0155 2.98651C48.3479 3.62571 48.5141 4.34588 48.5141 5.14702C48.5141 5.95241 48.3458 6.67685 48.0091 7.32031C47.6767 7.95952 47.1739 8.46662 46.5006 8.84162C45.8316 9.21236 44.99 9.39773 43.9757 9.39773H40.7669V7.72301H43.7968C44.4402 7.72301 44.9623 7.61222 45.3628 7.39062C45.7634 7.16477 46.0574 6.85795 46.2449 6.47017C46.4324 6.08239 46.5262 5.64133 46.5262 5.14702C46.5262 4.6527 46.4324 4.21378 46.2449 3.83026C46.0574 3.44673 45.7613 3.14631 45.3564 2.92898C44.9559 2.71165 44.4275 2.60298 43.7712 2.60298H41.2911V14H39.3159ZM51.7296 14V0.909091H59.937V2.60938H53.7048V6.59801H59.5087V8.2919H53.7048V12.2997H60.0137V14H51.7296ZM70.2448 14H68.1482L72.8592 0.909091H75.1411L79.8521 14H77.7555L74.0545 3.28693H73.9522L70.2448 14ZM70.5964 8.87358H77.3975V10.5355H70.5964V8.87358ZM82.2334 14.179V12.4403H83.0196C83.3478 12.4403 83.6184 12.3849 83.8314 12.2741C84.0488 12.1634 84.2256 12.0142 84.362 11.8267C84.5026 11.6349 84.6198 11.4261 84.7135 11.2003L84.8989 10.7337L80.2966 0.909091H82.3932L85.8257 8.47727L88.8811 0.909091H90.9522L86.4266 11.7308C86.2348 12.1655 86.0132 12.5682 85.7618 12.9389C85.5147 13.3097 85.1844 13.6101 84.7711 13.8402C84.3577 14.0661 83.8101 14.179 83.1283 14.179H82.2334ZM92.7295 17.1641V12.3253H93.5924C93.8864 12.0781 94.1613 11.7266 94.417 11.2706C94.6727 10.8146 94.89 10.1989 95.069 9.4233C95.2479 8.64773 95.3715 7.6527 95.4397 6.43821L95.7465 0.909091H103.82V12.3253H105.303V17.1449H103.411V14H94.6215V17.1641H92.7295ZM95.9191 12.3253H101.928V2.60938H97.5363L97.3317 6.43821C97.2763 7.36293 97.1847 8.19389 97.0569 8.93111C96.9333 9.66832 96.7735 10.3203 96.5775 10.8871C96.3857 11.4496 96.1663 11.929 95.9191 12.3253ZM108.366 0.909091H110.322V10.5227H110.444L117.104 0.909091H118.932V14H116.957V4.39915H116.836L110.188 14H108.366V0.909091ZM122.068 2.60938V0.909091H132.199V2.60938H128.115V14H126.146V2.60938H122.068Z" fill="#E4E5EA"/>
</svg>
