<svg width="132" height="30" viewBox="0 0 132 30" fill="none" xmlns="http://www.w3.org/2000/svg">
<path d="M7.4485 9.08C6.6165 9.08 5.86983 8.89867 5.2085 8.536C4.55783 8.17333 4.04583 7.66667 3.6725 7.016C3.29917 6.35467 3.1125 5.61333 3.1125 4.792C3.1125 3.97067 3.29917 3.23467 3.6725 2.584C4.04583 1.93333 4.55783 1.42667 5.2085 1.064C5.86983 0.701333 6.6165 0.52 7.4485 0.52C8.17383 0.52 8.81917 0.664 9.3845 0.952C9.9605 1.22933 10.4138 1.64 10.7445 2.184L9.8965 2.76C9.61917 2.344 9.26717 2.03467 8.8405 1.832C8.41383 1.61867 7.94983 1.512 7.4485 1.512C6.8405 1.512 6.29117 1.65067 5.8005 1.928C5.3205 2.19467 4.94183 2.57867 4.6645 3.08C4.39783 3.58133 4.2645 4.152 4.2645 4.792C4.2645 5.44267 4.39783 6.01867 4.6645 6.52C4.94183 7.01067 5.3205 7.39467 5.8005 7.672C6.29117 7.93867 6.8405 8.072 7.4485 8.072C7.94983 8.072 8.41383 7.97067 8.8405 7.768C9.26717 7.56533 9.61917 7.256 9.8965 6.84L10.7445 7.416C10.4138 7.96 9.9605 8.376 9.3845 8.664C8.8085 8.94133 8.16317 9.08 7.4485 9.08ZM24.6836 0.584V9H23.5476V1.592H18.2676V9H17.1316V0.584H24.6836ZM31.3849 9.08C30.5742 9.08 29.8435 8.89867 29.1929 8.536C28.5422 8.16267 28.0302 7.65067 27.6569 7C27.2835 6.34933 27.0969 5.61333 27.0969 4.792C27.0969 3.97067 27.2835 3.23467 27.6569 2.584C28.0302 1.93333 28.5422 1.42667 29.1929 1.064C29.8435 0.701333 30.5742 0.52 31.3849 0.52C32.1955 0.52 32.9262 0.701333 33.5769 1.064C34.2275 1.42667 34.7342 1.93333 35.0969 2.584C35.4702 3.23467 35.6569 3.97067 35.6569 4.792C35.6569 5.61333 35.4702 6.34933 35.0969 7C34.7342 7.65067 34.2275 8.16267 33.5769 8.536C32.9262 8.89867 32.1955 9.08 31.3849 9.08ZM31.3849 8.072C31.9822 8.072 32.5155 7.93867 32.9849 7.672C33.4649 7.39467 33.8382 7.00533 34.1049 6.504C34.3715 6.00267 34.5049 5.432 34.5049 4.792C34.5049 4.152 34.3715 3.58133 34.1049 3.08C33.8382 2.57867 33.4649 2.19467 32.9849 1.928C32.5155 1.65067 31.9822 1.512 31.3849 1.512C30.7875 1.512 30.2489 1.65067 29.7689 1.928C29.2995 2.19467 28.9262 2.57867 28.6489 3.08C28.3822 3.58133 28.2489 4.152 28.2489 4.792C28.2489 5.432 28.3822 6.00267 28.6489 6.504C28.9262 7.00533 29.2995 7.39467 29.7689 7.672C30.2489 7.93867 30.7875 8.072 31.3849 8.072ZM41.1408 5.256H39.2208V9H38.0848V0.584H39.2208V4.28H41.1568L44.1168 0.584H45.3488L42.0368 4.664L45.5888 9H44.2448L41.1408 5.256ZM50.1214 0.52C51.22 0.52 52.0627 0.797333 52.6494 1.352C53.236 1.896 53.5294 2.70667 53.5294 3.784V9H52.4414V7.688C52.1854 8.12533 51.8067 8.46667 51.3054 8.712C50.8147 8.95733 50.228 9.08 49.5454 9.08C48.6067 9.08 47.86 8.856 47.3054 8.408C46.7507 7.96 46.4734 7.368 46.4734 6.632C46.4734 5.91733 46.7294 5.34133 47.2414 4.904C47.764 4.46667 48.5907 4.248 49.7214 4.248H52.3934V3.736C52.3934 3.01067 52.1907 2.46133 51.7854 2.088C51.38 1.704 50.788 1.512 50.0094 1.512C49.476 1.512 48.964 1.60267 48.4734 1.784C47.9827 1.95467 47.5614 2.19467 47.2094 2.504L46.6974 1.656C47.124 1.29333 47.636 1.016 48.2334 0.823999C48.8307 0.621333 49.46 0.52 50.1214 0.52ZM49.7214 8.184C50.3614 8.184 50.9107 8.04 51.3694 7.752C51.828 7.45333 52.1694 7.02667 52.3934 6.472V5.096H49.7534C48.3134 5.096 47.5934 5.59733 47.5934 6.6C47.5934 7.09067 47.78 7.48 48.1534 7.768C48.5267 8.04533 49.0494 8.184 49.7214 8.184ZM60.4776 4.616C61.075 4.75467 61.5336 4.99467 61.8536 5.336C62.1843 5.67733 62.3496 6.09333 62.3496 6.584C62.3496 7.07467 62.179 7.512 61.8376 7.896C61.507 8.28 61.0536 8.57867 60.4776 8.792C59.9016 8.99467 59.267 9.096 58.5736 9.096C57.9656 9.096 57.3683 9.01067 56.7816 8.84C56.195 8.65867 55.683 8.39733 55.2456 8.056L55.6296 7.208C56.0136 7.496 56.4616 7.72 56.9736 7.88C57.4856 8.04 58.003 8.12 58.5256 8.12C59.3043 8.12 59.939 7.976 60.4296 7.688C60.931 7.38933 61.1816 6.98933 61.1816 6.488C61.1816 6.04 60.979 5.69333 60.5736 5.448C60.1683 5.192 59.6136 5.064 58.9096 5.064H57.4696V4.232H58.8456C59.475 4.232 59.9816 4.11467 60.3656 3.88C60.7496 3.63467 60.9416 3.30933 60.9416 2.904C60.9416 2.456 60.723 2.104 60.2856 1.848C59.859 1.592 59.299 1.464 58.6056 1.464C57.699 1.464 56.803 1.69333 55.9176 2.152L55.5976 1.272C56.6003 0.749333 57.6403 0.488 58.7176 0.488C59.3576 0.488 59.9336 0.584 60.4456 0.776C60.9683 0.957333 61.3736 1.21867 61.6616 1.56C61.9603 1.90133 62.1096 2.296 62.1096 2.744C62.1096 3.17067 61.9603 3.54933 61.6616 3.88C61.3736 4.21067 60.979 4.456 60.4776 4.616ZM67.8245 0.52C68.9232 0.52 69.7658 0.797333 70.3525 1.352C70.9392 1.896 71.2325 2.70667 71.2325 3.784V9H70.1445V7.688C69.8885 8.12533 69.5098 8.46667 69.0085 8.712C68.5178 8.95733 67.9312 9.08 67.2485 9.08C66.3098 9.08 65.5632 8.856 65.0085 8.408C64.4538 7.96 64.1765 7.368 64.1765 6.632C64.1765 5.91733 64.4325 5.34133 64.9445 4.904C65.4672 4.46667 66.2938 4.248 67.4245 4.248H70.0965V3.736C70.0965 3.01067 69.8938 2.46133 69.4885 2.088C69.0832 1.704 68.4912 1.512 67.7125 1.512C67.1792 1.512 66.6672 1.60267 66.1765 1.784C65.6858 1.95467 65.2645 2.19467 64.9125 2.504L64.4005 1.656C64.8272 1.29333 65.3392 1.016 65.9365 0.823999C66.5338 0.621333 67.1632 0.52 67.8245 0.52ZM67.4245 8.184C68.0645 8.184 68.6138 8.04 69.0725 7.752C69.5312 7.45333 69.8725 7.02667 70.0965 6.472V5.096H67.4565C66.0165 5.096 65.2965 5.59733 65.2965 6.6C65.2965 7.09067 65.4832 7.48 65.8565 7.768C66.2298 8.04533 66.7525 8.184 67.4245 8.184ZM80.1766 1.592H76.9926V9H75.8566V1.592H72.6726V0.584H80.1766V1.592ZM88.7885 5.144H81.7485C81.8125 6.01867 82.1485 6.728 82.7565 7.272C83.3645 7.80533 84.1325 8.072 85.0605 8.072C85.5832 8.072 86.0632 7.98133 86.5005 7.8C86.9378 7.608 87.3165 7.33067 87.6365 6.968L88.2765 7.704C87.9032 8.152 87.4338 8.49333 86.8685 8.728C86.3138 8.96267 85.7005 9.08 85.0285 9.08C84.1645 9.08 83.3965 8.89867 82.7245 8.536C82.0632 8.16267 81.5458 7.65067 81.1725 7C80.7992 6.34933 80.6125 5.61333 80.6125 4.792C80.6125 3.97067 80.7885 3.23467 81.1405 2.584C81.5032 1.93333 81.9938 1.42667 82.6125 1.064C83.2418 0.701333 83.9458 0.52 84.7245 0.52C85.5032 0.52 86.2018 0.701333 86.8205 1.064C87.4392 1.42667 87.9245 1.93333 88.2765 2.584C88.6285 3.224 88.8045 3.96 88.8045 4.792L88.7885 5.144ZM84.7245 1.496C83.9138 1.496 83.2312 1.75733 82.6765 2.28C82.1325 2.792 81.8232 3.464 81.7485 4.296H87.7165C87.6418 3.464 87.3272 2.792 86.7725 2.28C86.2285 1.75733 85.5458 1.496 84.7245 1.496ZM98.0273 0.584V9H96.8913V1.592H92.8593L92.7473 3.672C92.6619 5.42133 92.4593 6.76533 92.1393 7.704C91.8193 8.64267 91.2486 9.112 90.4273 9.112C90.2033 9.112 89.9313 9.06933 89.6113 8.984L89.6913 8.008C89.8833 8.05067 90.0166 8.072 90.0913 8.072C90.5286 8.072 90.8593 7.86933 91.0833 7.464C91.3073 7.05867 91.4566 6.55733 91.5312 5.96C91.6059 5.36267 91.6699 4.57333 91.7233 3.592L91.8673 0.584H98.0273ZM107.721 0.584V9H106.681V6.216H104.041H103.721L101.769 9H100.537L102.633 6.056C101.982 5.87467 101.481 5.56533 101.129 5.128C100.777 4.69067 100.601 4.136 100.601 3.464C100.601 2.52533 100.921 1.81067 101.561 1.32C102.201 0.829333 103.075 0.584 104.185 0.584H107.721ZM101.753 3.496C101.753 4.744 102.547 5.368 104.137 5.368H106.681V1.592H104.217C102.574 1.592 101.753 2.22667 101.753 3.496ZM120.368 0.584V9H119.328V2.344L115.92 7.976H115.408L112 2.328V9H110.96V0.584H112.112L115.68 6.648L119.312 0.584H120.368ZM123.6 0.584H124.736V7.272L130.352 0.584H131.36V9H130.224V2.312L124.624 9H123.6V0.584ZM5.63225 24.648C6.77358 24.9147 7.34425 25.6027 7.34425 26.712C7.34425 27.448 7.07225 28.0133 6.52825 28.408C5.98425 28.8027 5.17358 29 4.09625 29H0.27225V20.584H3.98425C4.94425 20.584 5.69625 20.7707 6.24025 21.144C6.78425 21.5173 7.05625 22.0507 7.05625 22.744C7.05625 23.2027 6.92825 23.5973 6.67225 23.928C6.42692 24.248 6.08025 24.488 5.63225 24.648ZM1.37625 24.328H3.90425C4.55492 24.328 5.05092 24.2053 5.39225 23.96C5.74425 23.7147 5.92025 23.3573 5.92025 22.888C5.92025 22.4187 5.74425 22.0667 5.39225 21.832C5.05092 21.5973 4.55492 21.48 3.90425 21.48H1.37625V24.328ZM4.04825 28.104C4.77358 28.104 5.31758 27.9867 5.68025 27.752C6.04292 27.5173 6.22425 27.1493 6.22425 26.648C6.22425 26.1467 6.05892 25.7787 5.72825 25.544C5.39758 25.2987 4.87492 25.176 4.16025 25.176H1.37625V28.104H4.04825ZM12.9026 20.52C14.0013 20.52 14.844 20.7973 15.4306 21.352C16.0173 21.896 16.3106 22.7067 16.3106 23.784V29H15.2226V27.688C14.9666 28.1253 14.588 28.4667 14.0866 28.712C13.596 28.9573 13.0093 29.08 12.3266 29.08C11.388 29.08 10.6413 28.856 10.0866 28.408C9.53196 27.96 9.25463 27.368 9.25463 26.632C9.25463 25.9173 9.51063 25.3413 10.0226 24.904C10.5453 24.4667 11.372 24.248 12.5026 24.248H15.1746V23.736C15.1746 23.0107 14.972 22.4613 14.5666 22.088C14.1613 21.704 13.5693 21.512 12.7906 21.512C12.2573 21.512 11.7453 21.6027 11.2546 21.784C10.764 21.9547 10.3426 22.1947 9.99063 22.504L9.47863 21.656C9.90529 21.2933 10.4173 21.016 11.0146 20.824C11.612 20.6213 12.2413 20.52 12.9026 20.52ZM12.5026 28.184C13.1426 28.184 13.692 28.04 14.1506 27.752C14.6093 27.4533 14.9506 27.0267 15.1746 26.472V25.096H12.5346C11.0946 25.096 10.3746 25.5973 10.3746 26.6C10.3746 27.0907 10.5613 27.48 10.9346 27.768C11.308 28.0453 11.8306 28.184 12.5026 28.184ZM30.9508 20.584V29H19.3348V20.584H20.4708V28.008H24.5988V20.584H25.7348V28.008H29.8148V20.584H30.9508ZM41.5541 25.144H34.5141C34.5781 26.0187 34.9141 26.728 35.5221 27.272C36.1301 27.8053 36.8981 28.072 37.8261 28.072C38.3488 28.072 38.8288 27.9813 39.2661 27.8C39.7035 27.608 40.0821 27.3307 40.4021 26.968L41.0421 27.704C40.6688 28.152 40.1995 28.4933 39.6341 28.728C39.0795 28.9627 38.4661 29.08 37.7941 29.08C36.9301 29.08 36.1621 28.8987 35.4901 28.536C34.8288 28.1627 34.3115 27.6507 33.9381 27C33.5648 26.3493 33.3781 25.6133 33.3781 24.792C33.3781 23.9707 33.5541 23.2347 33.9061 22.584C34.2688 21.9333 34.7595 21.4267 35.3781 21.064C36.0075 20.7013 36.7115 20.52 37.4901 20.52C38.2688 20.52 38.9675 20.7013 39.5861 21.064C40.2048 21.4267 40.6901 21.9333 41.0421 22.584C41.3941 23.224 41.5701 23.96 41.5701 24.792L41.5541 25.144ZM37.4901 21.496C36.6795 21.496 35.9968 21.7573 35.4421 22.28C34.8981 22.792 34.5888 23.464 34.5141 24.296H40.4821C40.4075 23.464 40.0928 22.792 39.5381 22.28C38.9941 21.7573 38.3115 21.496 37.4901 21.496ZM50.0368 21.592H45.2208V29H44.0848V20.584H50.0368V21.592ZM54.7599 29.08C53.9492 29.08 53.2185 28.8987 52.5679 28.536C51.9172 28.1627 51.4052 27.6507 51.0319 27C50.6585 26.3493 50.4719 25.6133 50.4719 24.792C50.4719 23.9707 50.6585 23.2347 51.0319 22.584C51.4052 21.9333 51.9172 21.4267 52.5679 21.064C53.2185 20.7013 53.9492 20.52 54.7599 20.52C55.5705 20.52 56.3012 20.7013 56.9519 21.064C57.6025 21.4267 58.1092 21.9333 58.4719 22.584C58.8452 23.2347 59.0319 23.9707 59.0319 24.792C59.0319 25.6133 58.8452 26.3493 58.4719 27C58.1092 27.6507 57.6025 28.1627 56.9519 28.536C56.3012 28.8987 55.5705 29.08 54.7599 29.08ZM54.7599 28.072C55.3572 28.072 55.8905 27.9387 56.3599 27.672C56.8399 27.3947 57.2132 27.0053 57.4799 26.504C57.7465 26.0027 57.8799 25.432 57.8799 24.792C57.8799 24.152 57.7465 23.5813 57.4799 23.08C57.2132 22.5787 56.8399 22.1947 56.3599 21.928C55.8905 21.6507 55.3572 21.512 54.7599 21.512C54.1625 21.512 53.6239 21.6507 53.1439 21.928C52.6745 22.1947 52.3012 22.5787 52.0239 23.08C51.7572 23.5813 51.6239 24.152 51.6239 24.792C51.6239 25.432 51.7572 26.0027 52.0239 26.504C52.3012 27.0053 52.6745 27.3947 53.1439 27.672C53.6239 27.9387 54.1625 28.072 54.7599 28.072ZM69.7273 20.792C70.5059 20.792 71.1993 20.968 71.8073 21.32C72.4259 21.6613 72.9059 22.1467 73.2473 22.776C73.5886 23.3947 73.7593 24.104 73.7593 24.904C73.7593 25.7253 73.5779 26.456 73.2153 27.096C72.8633 27.7253 72.3673 28.216 71.7273 28.568C71.0873 28.92 70.3513 29.096 69.5193 29.096C68.1219 29.096 67.0393 28.6053 66.2713 27.624C65.5033 26.6427 65.1193 25.288 65.1193 23.56C65.1193 21.7573 65.4606 20.376 66.1432 19.416C66.8366 18.456 67.9139 17.8053 69.3753 17.464L73.1513 16.6L73.3433 17.64L69.7913 18.456C68.5859 18.7227 67.7006 19.1973 67.1353 19.88C66.5699 20.552 66.2606 21.5493 66.2073 22.872C66.5486 22.2213 67.0233 21.7147 67.6313 21.352C68.2393 20.9787 68.9379 20.792 69.7273 20.792ZM69.5513 28.152C70.1379 28.152 70.6606 28.0187 71.1193 27.752C71.5886 27.4747 71.9513 27.0907 72.2073 26.6C72.4739 26.1093 72.6073 25.5547 72.6073 24.936C72.6073 24.3173 72.4793 23.7733 72.2233 23.304C71.9673 22.8347 71.6046 22.472 71.1353 22.216C70.6766 21.9493 70.1486 21.816 69.5513 21.816C68.9539 21.816 68.4206 21.9493 67.9513 22.216C67.4926 22.472 67.1299 22.8347 66.8633 23.304C66.6073 23.7733 66.4793 24.3173 66.4793 24.936C66.4793 25.5547 66.6073 26.1093 66.8633 26.6C67.1299 27.0907 67.4979 27.4747 67.9673 27.752C68.4366 28.0187 68.9646 28.152 69.5513 28.152ZM76.1941 20.584H77.3301V27.272L82.9461 20.584H83.9541V29H82.8181V22.312L77.2181 29H76.1941V20.584ZM91.1339 24.616C91.7312 24.7547 92.1899 24.9947 92.5099 25.336C92.8405 25.6773 93.0059 26.0933 93.0059 26.584C93.0059 27.0747 92.8352 27.512 92.4939 27.896C92.1632 28.28 91.7099 28.5787 91.1339 28.792C90.5579 28.9947 89.9232 29.096 89.2299 29.096C88.6219 29.096 88.0245 29.0107 87.4379 28.84C86.8512 28.6587 86.3392 28.3973 85.9019 28.056L86.2859 27.208C86.6699 27.496 87.1179 27.72 87.6299 27.88C88.1419 28.04 88.6592 28.12 89.1819 28.12C89.9605 28.12 90.5952 27.976 91.0859 27.688C91.5872 27.3893 91.8379 26.9893 91.8379 26.488C91.8379 26.04 91.6352 25.6933 91.2299 25.448C90.8245 25.192 90.2699 25.064 89.5659 25.064H88.1259V24.232H89.5019C90.1312 24.232 90.6379 24.1147 91.0219 23.88C91.4059 23.6347 91.5979 23.3093 91.5979 22.904C91.5979 22.456 91.3792 22.104 90.9419 21.848C90.5152 21.592 89.9552 21.464 89.2619 21.464C88.3552 21.464 87.4592 21.6933 86.5739 22.152L86.2539 21.272C87.2565 20.7493 88.2965 20.488 89.3739 20.488C90.0139 20.488 90.5899 20.584 91.1019 20.776C91.6245 20.9573 92.0299 21.2187 92.3179 21.56C92.6165 21.9013 92.7659 22.296 92.7659 22.744C92.7659 23.1707 92.6165 23.5493 92.3179 23.88C92.0299 24.2107 91.6352 24.456 91.1339 24.616ZM95.5848 20.584H96.7208V24.312H102.017V20.584H103.153V29H102.017V25.288H96.7208V29H95.5848V20.584ZM113.742 25.144H106.702C106.766 26.0187 107.102 26.728 107.71 27.272C108.318 27.8053 109.086 28.072 110.014 28.072C110.536 28.072 111.016 27.9813 111.454 27.8C111.891 27.608 112.27 27.3307 112.59 26.968L113.23 27.704C112.856 28.152 112.387 28.4933 111.822 28.728C111.267 28.9627 110.654 29.08 109.982 29.08C109.118 29.08 108.35 28.8987 107.678 28.536C107.016 28.1627 106.499 27.6507 106.126 27C105.752 26.3493 105.566 25.6133 105.566 24.792C105.566 23.9707 105.742 23.2347 106.094 22.584C106.456 21.9333 106.947 21.4267 107.566 21.064C108.195 20.7013 108.899 20.52 109.678 20.52C110.456 20.52 111.155 20.7013 111.774 21.064C112.392 21.4267 112.878 21.9333 113.23 22.584C113.582 23.224 113.758 23.96 113.758 24.792L113.742 25.144ZM109.678 21.496C108.867 21.496 108.184 21.7573 107.63 22.28C107.086 22.792 106.776 23.464 106.702 24.296H112.67C112.595 23.464 112.28 22.792 111.726 22.28C111.182 21.7573 110.499 21.496 109.678 21.496ZM119.792 29.08C118.96 29.08 118.214 28.8987 117.552 28.536C116.902 28.1733 116.39 27.6667 116.016 27.016C115.643 26.3547 115.456 25.6133 115.456 24.792C115.456 23.9707 115.643 23.2347 116.016 22.584C116.39 21.9333 116.902 21.4267 117.552 21.064C118.214 20.7013 118.96 20.52 119.792 20.52C120.518 20.52 121.163 20.664 121.728 20.952C122.304 21.2293 122.758 21.64 123.088 22.184L122.24 22.76C121.963 22.344 121.611 22.0347 121.184 21.832C120.758 21.6187 120.294 21.512 119.792 21.512C119.184 21.512 118.635 21.6507 118.144 21.928C117.664 22.1947 117.286 22.5787 117.008 23.08C116.742 23.5813 116.608 24.152 116.608 24.792C116.608 25.4427 116.742 26.0187 117.008 26.52C117.286 27.0107 117.664 27.3947 118.144 27.672C118.635 27.9387 119.184 28.072 119.792 28.072C120.294 28.072 120.758 27.9707 121.184 27.768C121.611 27.5653 121.963 27.256 122.24 26.84L123.088 27.416C122.758 27.96 122.304 28.376 121.728 28.664C121.152 28.9413 120.507 29.08 119.792 29.08ZM128.184 20.52C129.283 20.52 130.125 20.7973 130.712 21.352C131.299 21.896 131.592 22.7067 131.592 23.784V29H130.504V27.688C130.248 28.1253 129.869 28.4667 129.368 28.712C128.877 28.9573 128.291 29.08 127.608 29.08C126.669 29.08 125.923 28.856 125.368 28.408C124.813 27.96 124.536 27.368 124.536 26.632C124.536 25.9173 124.792 25.3413 125.304 24.904C125.827 24.4667 126.653 24.248 127.784 24.248H130.456V23.736C130.456 23.0107 130.253 22.4613 129.848 22.088C129.443 21.704 128.851 21.512 128.072 21.512C127.539 21.512 127.027 21.6027 126.536 21.784C126.045 21.9547 125.624 22.1947 125.272 22.504L124.76 21.656C125.187 21.2933 125.699 21.016 126.296 20.824C126.893 20.6213 127.523 20.52 128.184 20.52ZM127.784 28.184C128.424 28.184 128.973 28.04 129.432 27.752C129.891 27.4533 130.232 27.0267 130.456 26.472V25.096H127.816C126.376 25.096 125.656 25.5973 125.656 26.6C125.656 27.0907 125.843 27.48 126.216 27.768C126.589 28.0453 127.112 28.184 127.784 28.184Z" fill="#E4E5EA"/>
</svg>
