<svg width="127" height="30" viewBox="0 0 127 30" fill="none" xmlns="http://www.w3.org/2000/svg">
<path d="M0.33475 9V0.599999H1.47075V7.272L7.08675 0.599999H8.09475V9H6.95875V2.312L1.35875 9H0.33475ZM14.8704 9.08C14.0384 9.08 13.2917 8.89867 12.6304 8.536C11.9797 8.16267 11.4677 7.656 11.0944 7.016C10.721 6.36533 10.5344 5.624 10.5344 4.792C10.5344 3.94933 10.721 3.208 11.0944 2.568C11.4677 1.928 11.9797 1.42667 12.6304 1.064C13.2917 0.701333 14.0384 0.52 14.8704 0.52C15.585 0.52 16.2304 0.658666 16.8064 0.936C17.3824 1.21333 17.8357 1.62933 18.1664 2.184L17.3184 2.76C17.0304 2.33333 16.673 2.01867 16.2464 1.816C15.8197 1.61333 15.3557 1.512 14.8544 1.512C14.257 1.512 13.7184 1.65067 13.2384 1.928C12.7584 2.19467 12.3797 2.57333 12.1024 3.064C11.825 3.55467 11.6864 4.13067 11.6864 4.792C11.6864 5.45333 11.825 6.02933 12.1024 6.52C12.3797 7.01067 12.7584 7.39467 13.2384 7.672C13.7184 7.93867 14.257 8.072 14.8544 8.072C15.3557 8.072 15.8197 7.97067 16.2464 7.768C16.673 7.56533 17.0304 7.256 17.3184 6.84L18.1664 7.416C17.8357 7.96 17.3824 8.376 16.8064 8.664C16.2304 8.94133 15.585 9.08 14.8704 9.08ZM20.366 9V0.599999H27.918V9H26.782V1.288L27.07 1.592H21.214L21.502 1.288V9H20.366ZM34.6033 9.08C33.7926 9.08 33.0619 8.89867 32.4113 8.536C31.7713 8.16267 31.2646 7.656 30.8913 7.016C30.5179 6.36533 30.3313 5.624 30.3313 4.792C30.3313 3.94933 30.5179 3.208 30.8913 2.568C31.2646 1.928 31.7713 1.42667 32.4113 1.064C33.0513 0.701333 33.7819 0.52 34.6033 0.52C35.4353 0.52 36.1713 0.701333 36.8113 1.064C37.4619 1.42667 37.9686 1.928 38.3313 2.568C38.7046 3.208 38.8913 3.94933 38.8913 4.792C38.8913 5.624 38.7046 6.36533 38.3313 7.016C37.9686 7.656 37.4619 8.16267 36.8113 8.536C36.1606 8.89867 35.4246 9.08 34.6033 9.08ZM34.6033 8.072C35.2113 8.072 35.7499 7.93867 36.2193 7.672C36.6886 7.39467 37.0566 7.01067 37.3233 6.52C37.6006 6.01867 37.7393 5.44267 37.7393 4.792C37.7393 4.13067 37.6006 3.55467 37.3233 3.064C37.0566 2.57333 36.6886 2.19467 36.2193 1.928C35.7499 1.65067 35.2166 1.512 34.6193 1.512C34.0219 1.512 33.4886 1.65067 33.0193 1.928C32.5499 2.19467 32.1766 2.57333 31.8993 3.064C31.6219 3.55467 31.4833 4.13067 31.4833 4.792C31.4833 5.44267 31.6219 6.01867 31.8993 6.52C32.1766 7.01067 32.5499 7.39467 33.0193 7.672C33.4886 7.93867 34.0166 8.072 34.6033 8.072ZM39.7363 8.984L39.8163 8.008C39.8909 8.01867 39.9603 8.03467 40.0243 8.056C40.0989 8.06667 40.1629 8.072 40.2163 8.072C40.5576 8.072 40.8296 7.944 41.0323 7.688C41.2456 7.432 41.4056 7.09067 41.5123 6.664C41.6189 6.23733 41.6936 5.75733 41.7363 5.224C41.7789 4.68 41.8163 4.136 41.8483 3.592L41.9923 0.599999H48.1523V9H47.0163V1.256L47.3043 1.592H42.7283L43.0003 1.24L42.8723 3.672C42.8403 4.39733 42.7816 5.09067 42.6963 5.752C42.6216 6.41333 42.4989 6.99467 42.3283 7.496C42.1683 7.99733 41.9443 8.392 41.6562 8.68C41.3683 8.95733 41.0003 9.096 40.5523 9.096C40.4243 9.096 40.2909 9.08533 40.1523 9.064C40.0243 9.04267 39.8856 9.016 39.7363 8.984ZM54.9976 3.56C56.0536 3.57067 56.8536 3.80533 57.3976 4.264C57.9523 4.72267 58.2296 5.384 58.2296 6.248C58.2296 7.144 57.931 7.832 57.3336 8.312C56.747 8.792 55.8936 9.02667 54.7736 9.016L51.3816 9V0.599999H52.5176V3.528L54.9976 3.56ZM54.7096 8.152C55.4883 8.16267 56.075 8.008 56.4696 7.688C56.875 7.35733 57.0776 6.87733 57.0776 6.248C57.0776 5.61867 56.8803 5.16 56.4856 4.872C56.091 4.57333 55.499 4.41867 54.7096 4.408L52.5176 4.376V8.12L54.7096 8.152ZM62.5751 9.096C63.2685 9.096 63.8925 8.98933 64.4471 8.776C65.0125 8.56267 65.4605 8.26933 65.7911 7.896C66.1218 7.512 66.2871 7.06933 66.2871 6.568C66.2871 5.928 66.0151 5.42133 65.4711 5.048C64.9378 4.67467 64.1911 4.488 63.2311 4.488L63.1831 4.792C63.7271 4.792 64.2125 4.70667 64.6391 4.536C65.0658 4.36533 65.4071 4.12533 65.6631 3.816C65.9191 3.50667 66.0471 3.144 66.0471 2.728C66.0471 2.25867 65.8871 1.85867 65.5671 1.528C65.2471 1.18667 64.8151 0.925333 64.2711 0.743999C63.7378 0.562666 63.1351 0.482666 62.4631 0.504C61.9725 0.504 61.4818 0.573333 60.9911 0.712C60.5111 0.84 60.0258 1.032 59.5351 1.288L59.8551 2.168C60.2925 1.944 60.7351 1.77867 61.1831 1.672C61.6311 1.55467 62.0631 1.49067 62.4791 1.48C62.9378 1.48 63.3485 1.53333 63.7111 1.64C64.0738 1.74667 64.3565 1.90667 64.5591 2.12C64.7725 2.33333 64.8791 2.58933 64.8791 2.888C64.8791 3.16533 64.7885 3.40533 64.6071 3.608C64.4365 3.81067 64.1911 3.96533 63.8711 4.072C63.5511 4.17867 63.1831 4.232 62.7671 4.232H61.4071V5.064H62.8471C63.5511 5.064 64.1058 5.192 64.5111 5.448C64.9165 5.69333 65.1191 6.04 65.1191 6.488C65.1191 6.79733 65.0125 7.07467 64.7991 7.32C64.5858 7.56533 64.2871 7.75733 63.9031 7.896C63.5191 8.03467 63.0658 8.10933 62.5431 8.12C62.0205 8.12 61.4925 8.04533 60.9591 7.896C60.4258 7.736 59.9565 7.50667 59.5511 7.208L59.1831 8.056C59.6418 8.408 60.1698 8.66933 60.7671 8.84C61.3645 9.01067 61.9671 9.096 62.5751 9.096ZM72.322 9.08C71.5113 9.08 70.7807 8.89867 70.13 8.536C69.49 8.16267 68.9833 7.656 68.61 7.016C68.2367 6.36533 68.05 5.624 68.05 4.792C68.05 3.94933 68.2367 3.208 68.61 2.568C68.9833 1.928 69.49 1.42667 70.13 1.064C70.77 0.701333 71.5007 0.52 72.322 0.52C73.154 0.52 73.89 0.701333 74.53 1.064C75.1807 1.42667 75.6873 1.928 76.05 2.568C76.4233 3.208 76.61 3.94933 76.61 4.792C76.61 5.624 76.4233 6.36533 76.05 7.016C75.6873 7.656 75.1807 8.16267 74.53 8.536C73.8793 8.89867 73.1433 9.08 72.322 9.08ZM72.322 8.072C72.93 8.072 73.4687 7.93867 73.938 7.672C74.4073 7.39467 74.7753 7.01067 75.042 6.52C75.3193 6.01867 75.458 5.44267 75.458 4.792C75.458 4.13067 75.3193 3.55467 75.042 3.064C74.7753 2.57333 74.4073 2.19467 73.938 1.928C73.4687 1.65067 72.9353 1.512 72.338 1.512C71.7407 1.512 71.2073 1.65067 70.738 1.928C70.2687 2.19467 69.8953 2.57333 69.618 3.064C69.3407 3.55467 69.202 4.13067 69.202 4.792C69.202 5.44267 69.3407 6.01867 69.618 6.52C69.8953 7.01067 70.2687 7.39467 70.738 7.672C71.2073 7.93867 71.7353 8.072 72.322 8.072ZM79.0379 9V0.599999H82.7499C83.6992 0.599999 84.4459 0.781333 84.9899 1.144C85.5445 1.50667 85.8219 2.04 85.8219 2.744C85.8219 3.42667 85.5605 3.95467 85.0379 4.328C84.5152 4.69067 83.8272 4.872 82.9739 4.872L83.1979 4.536C84.2005 4.536 84.9365 4.72267 85.4059 5.096C85.8752 5.46933 86.1099 6.008 86.1099 6.712C86.1099 7.43733 85.8432 8.00267 85.3099 8.408C84.7872 8.80267 83.9712 9 82.8619 9H79.0379ZM80.1419 8.104H82.8139C83.5285 8.104 84.0672 7.992 84.4299 7.768C84.8032 7.53333 84.9899 7.16 84.9899 6.648C84.9899 6.136 84.8245 5.76267 84.4939 5.528C84.1632 5.29333 83.6405 5.176 82.9259 5.176H80.1419V8.104ZM80.1419 4.328H82.6699C83.3205 4.328 83.8165 4.20533 84.1579 3.96C84.5099 3.71467 84.6859 3.35733 84.6859 2.888C84.6859 2.41867 84.5099 2.06667 84.1579 1.832C83.8165 1.59733 83.3205 1.48 82.6699 1.48H80.1419V4.328ZM93.9883 9V7.144L93.9403 6.84V3.736C93.9403 3.02133 93.7376 2.472 93.3323 2.088C92.9376 1.704 92.3456 1.512 91.5563 1.512C91.0123 1.512 90.4949 1.60267 90.0043 1.784C89.5136 1.96533 89.0976 2.20533 88.7563 2.504L88.2443 1.656C88.6709 1.29333 89.1829 1.016 89.7803 0.823999C90.3776 0.621333 91.0069 0.52 91.6683 0.52C92.7563 0.52 93.5936 0.791999 94.1803 1.336C94.7776 1.86933 95.0763 2.68533 95.0763 3.784V9H93.9883ZM91.0923 9.08C90.4629 9.08 89.9136 8.97867 89.4443 8.776C88.9856 8.56267 88.6336 8.27467 88.3883 7.912C88.1429 7.53867 88.0203 7.112 88.0203 6.632C88.0203 6.19467 88.1216 5.8 88.3243 5.448C88.5376 5.08533 88.8789 4.79733 89.3483 4.584C89.8283 4.36 90.4683 4.248 91.2682 4.248H94.1643V5.096H91.3003C90.4896 5.096 89.9243 5.24 89.6043 5.528C89.2949 5.816 89.1403 6.17333 89.1403 6.6C89.1403 7.08 89.3269 7.464 89.7003 7.752C90.0736 8.04 90.5963 8.184 91.2682 8.184C91.9083 8.184 92.4576 8.04 92.9163 7.752C93.3856 7.45333 93.7269 7.02667 93.9403 6.472L94.1963 7.256C93.9829 7.81067 93.6096 8.25333 93.0763 8.584C92.5536 8.91467 91.8923 9.08 91.0923 9.08ZM98.1004 9V0.599999H99.2364V4.312H104.532V0.599999H105.668V9H104.532V5.288H99.2364V9H98.1004ZM108.897 9V0.599999H110.033V7.272L115.649 0.599999H116.657V9H115.521V2.312L109.921 9H108.897ZM125.337 9V5.976L125.545 6.216H122.697C121.62 6.216 120.777 5.98133 120.169 5.512C119.561 5.04267 119.257 4.36 119.257 3.464C119.257 2.504 119.582 1.78933 120.233 1.32C120.884 0.84 121.753 0.599999 122.841 0.599999H126.377V9H125.337ZM119.193 9L121.497 5.768H122.681L120.425 9H119.193ZM125.337 5.64V1.256L125.545 1.592H122.873C122.094 1.592 121.486 1.74133 121.049 2.04C120.622 2.33867 120.409 2.824 120.409 3.496C120.409 4.744 121.204 5.368 122.793 5.368H125.545L125.337 5.64ZM96.3443 29.096C95.5016 29.096 94.7229 28.9573 94.0083 28.68C93.2936 28.392 92.6749 27.992 92.1523 27.48C91.6296 26.968 91.2189 26.3653 90.9203 25.672C90.6323 24.9787 90.4883 24.2213 90.4883 23.4C90.4883 22.5787 90.6323 21.8213 90.9203 21.128C91.2189 20.4347 91.6296 19.832 92.1523 19.32C92.6856 18.808 93.3096 18.4133 94.0243 18.136C94.7389 17.848 95.5176 17.704 96.3603 17.704C97.1709 17.704 97.9336 17.8427 98.6483 18.12C99.3629 18.3867 99.9656 18.792 100.456 19.336L99.7043 20.088C99.2456 19.6187 98.7389 19.2827 98.1843 19.08C97.6296 18.8667 97.0323 18.76 96.3923 18.76C95.7203 18.76 95.0963 18.8773 94.5203 19.112C93.9443 19.336 93.4429 19.6613 93.0163 20.088C92.5896 20.504 92.2536 20.9947 92.0082 21.56C91.7736 22.1147 91.6562 22.728 91.6562 23.4C91.6562 24.072 91.7736 24.6907 92.0082 25.256C92.2536 25.8107 92.5896 26.3013 93.0163 26.728C93.4429 27.144 93.9443 27.4693 94.5203 27.704C95.0963 27.928 95.7203 28.04 96.3923 28.04C97.0323 28.04 97.6296 27.9333 98.1843 27.72C98.7389 27.5067 99.2456 27.1653 99.7043 26.696L100.456 27.448C99.9656 27.992 99.3629 28.4027 98.6483 28.68C97.9336 28.9573 97.1656 29.096 96.3443 29.096ZM102.98 29V17.8H107.172C108.122 17.8 108.938 17.9547 109.62 18.264C110.303 18.5627 110.826 19 111.188 19.576C111.562 20.1413 111.748 20.8293 111.748 21.64C111.748 22.4293 111.562 23.112 111.188 23.688C110.826 24.2533 110.303 24.6907 109.62 25C108.938 25.2987 108.122 25.448 107.172 25.448H103.636L104.164 24.904V29H102.98ZM110.628 29L107.748 24.936H109.028L111.924 29H110.628ZM104.164 25L103.636 24.44H107.14C108.26 24.44 109.108 24.1947 109.684 23.704C110.271 23.2133 110.564 22.5253 110.564 21.64C110.564 20.744 110.271 20.0507 109.684 19.56C109.108 19.0693 108.26 18.824 107.14 18.824H103.636L104.164 18.264V25ZM114.543 29V17.8H115.519L120.639 26.536H120.127L125.199 17.8H126.175V29H125.039V19.576H125.311L120.639 27.576H120.079L115.375 19.576H115.679V29H114.543Z" fill="#E4E5EA"/>
</svg>
