<svg width="99" height="13" viewBox="0 0 99 13" fill="none" xmlns="http://www.w3.org/2000/svg">
<path d="M3.991 10.078C3.315 10.078 2.665 9.96967 2.041 9.753C1.42567 9.53633 0.949 9.25033 0.611 8.895L0.988 8.154C1.31733 8.48333 1.755 8.752 2.301 8.96C2.847 9.15933 3.41033 9.259 3.991 9.259C4.80567 9.259 5.41667 9.11167 5.824 8.817C6.23133 8.51367 6.435 8.12367 6.435 7.647C6.435 7.283 6.32233 6.99267 6.097 6.776C5.88033 6.55933 5.61167 6.39467 5.291 6.282C4.97033 6.16067 4.524 6.03067 3.952 5.892C3.26733 5.71867 2.72133 5.554 2.314 5.398C1.90667 5.23333 1.55567 4.98633 1.261 4.657C0.975 4.32767 0.832 3.88133 0.832 3.318C0.832 2.85867 0.953333 2.44267 1.196 2.07C1.43867 1.68867 1.81133 1.38533 2.314 1.16C2.81667 0.934666 3.44067 0.822 4.186 0.822C4.706 0.822 5.213 0.895666 5.707 1.043C6.20967 1.18167 6.643 1.37667 7.007 1.628L6.682 2.395C6.30067 2.14367 5.89333 1.95733 5.46 1.836C5.02667 1.706 4.602 1.641 4.186 1.641C3.38867 1.641 2.78633 1.797 2.379 2.109C1.98033 2.41233 1.781 2.80667 1.781 3.292C1.781 3.656 1.88933 3.95067 2.106 4.176C2.33133 4.39267 2.60867 4.56167 2.938 4.683C3.276 4.79567 3.72667 4.92133 4.29 5.06C4.95733 5.22467 5.49467 5.38933 5.902 5.554C6.318 5.71 6.669 5.95267 6.955 6.282C7.241 6.60267 7.384 7.04033 7.384 7.595C7.384 8.05433 7.25833 8.47467 7.007 8.856C6.76433 9.22867 6.38733 9.52767 5.876 9.753C5.36467 9.96967 4.73633 10.078 3.991 10.078ZM12.951 5.723L11.092 7.608V10H10.13V0.899999H11.092V6.399L16.435 0.899999H17.54L13.601 5.021L17.813 10H16.669L12.951 5.723ZM22.5329 6.854V10H21.5839V6.854L17.9439 0.899999H18.9709L22.0909 6.009L25.2109 0.899999H26.1729L22.5329 6.854ZM31.5304 0.899999C32.6917 0.899999 33.6017 1.17733 34.2604 1.732C34.9191 2.28667 35.2484 3.04933 35.2484 4.02C35.2484 4.99067 34.9191 5.75333 34.2604 6.308C33.6017 6.854 32.6917 7.127 31.5304 7.127H29.0864V10H28.1244V0.899999H31.5304ZM31.5044 6.282C32.4057 6.282 33.0947 6.087 33.5714 5.697C34.0481 5.29833 34.2864 4.73933 34.2864 4.02C34.2864 3.28333 34.0481 2.72 33.5714 2.33C33.0947 1.93133 32.4057 1.732 31.5044 1.732H29.0864V6.282H31.5044ZM44.4135 9.168V10H37.9785V0.899999H44.2185V1.732H38.9405V4.969H43.6465V5.788H38.9405V9.168H44.4135ZM57.2531 7.569H52.1831L51.0911 10H50.0901L54.2501 0.899999H55.1991L59.3591 10H58.3451L57.2531 7.569ZM56.9021 6.789L54.7181 1.901L52.5341 6.789H56.9021ZM68.484 0.899999L64.35 8.557C64.0553 9.103 63.7087 9.51033 63.31 9.779C62.92 10.039 62.491 10.169 62.023 10.169C61.6763 10.169 61.3037 10.0867 60.905 9.922L61.178 9.142C61.49 9.26333 61.776 9.324 62.036 9.324C62.634 9.324 63.1237 8.999 63.505 8.349L63.765 7.907L60.073 0.899999H61.1L64.272 7.062L67.522 0.899999H68.484ZM78.8869 9.168V12.041H77.9899V10H70.0469L70.0339 12.041H69.1369L69.1499 9.168H69.6049C70.2029 9.13333 70.6189 8.661 70.8529 7.751C71.0869 6.83233 71.2299 5.53233 71.2819 3.851L71.3859 0.899999H77.5219V9.168H78.8869ZM72.1399 3.942C72.0966 5.32867 71.9883 6.47267 71.8149 7.374C71.6503 8.26667 71.3686 8.86467 70.9699 9.168H76.5729V1.732H72.2179L72.1399 3.942ZM81.4992 0.899999H82.4482V8.44L88.2722 0.899999H89.1432V10H88.1942V2.473L82.3702 10H81.4992V0.899999ZM98.8181 1.732H95.6201V10H94.6711V1.732H91.4731V0.899999H98.8181V1.732Z" fill="#E4E5EA"/>
</svg>
