<svg width="235" height="40" viewBox="0 0 235 40" fill="none" xmlns="http://www.w3.org/2000/svg">
<path d="M0.43821 14H5.45597C8.49858 14 9.87287 12.4851 9.87287 10.478C9.87287 8.4517 8.45384 7.30753 7.15625 7.23722V7.10938C8.35795 6.80256 9.36151 5.98438 9.36151 4.34801C9.36151 2.41122 8.01918 0.909091 5.23224 0.909091H0.43821V14ZM2.41335 12.3061V8.11293H5.33452C6.91974 8.11293 7.91051 9.13565 7.91051 10.3821C7.91051 11.4815 7.16264 12.3061 5.2642 12.3061H2.41335ZM2.41335 6.57244V2.5902H5.1108C6.67685 2.5902 7.42472 3.41477 7.42472 4.50142C7.42472 5.76705 6.3892 6.57244 5.05966 6.57244H2.41335ZM17.5721 11.6349L14.4656 4.18182H12.0621V14H13.935V6.86009L16.8626 14H18.2816L21.2603 6.88565V14H23.1204V4.18182H20.7425L17.5721 11.6349ZM29.8991 14.1982C32.0405 14.1982 33.5554 13.1435 33.9901 11.5455L32.1811 11.2195C31.8359 12.1463 31.005 12.6193 29.9183 12.6193C28.282 12.6193 27.1825 11.5582 27.1314 9.66619H34.1115V8.98864C34.1115 5.44105 31.9893 4.05398 29.7649 4.05398C27.0291 4.05398 25.2266 6.13778 25.2266 9.15483C25.2266 12.2038 27.0036 14.1982 29.8991 14.1982ZM27.1378 8.23438C27.2145 6.84091 28.2244 5.63281 29.7777 5.63281C31.2607 5.63281 32.2322 6.73224 32.2386 8.23438H27.1378ZM40.3677 14.1982C42.688 14.1982 44.1902 12.8047 44.4011 10.8935H42.541C42.2981 11.9545 41.4735 12.581 40.3805 12.581C38.7633 12.581 37.7214 11.2322 37.7214 9.09091C37.7214 6.98793 38.7825 5.66477 40.3805 5.66477C41.595 5.66477 42.3365 6.43182 42.541 7.35227H44.4011C44.1966 5.37074 42.5794 4.05398 40.3485 4.05398C37.5808 4.05398 35.791 6.13778 35.791 9.13565C35.791 12.0952 37.5169 14.1982 40.3677 14.1982ZM45.7019 5.83097H48.9171V14H50.7836V5.83097H53.986V4.18182H45.7019V5.83097ZM59.782 14.1982C61.9233 14.1982 63.4382 13.1435 63.8729 11.5455L62.0639 11.2195C61.7188 12.1463 60.8878 12.6193 59.8011 12.6193C58.1648 12.6193 57.0653 11.5582 57.0142 9.66619H63.9943V8.98864C63.9943 5.44105 61.8722 4.05398 59.6477 4.05398C56.9119 4.05398 55.1094 6.13778 55.1094 9.15483C55.1094 12.2038 56.8864 14.1982 59.782 14.1982ZM57.0206 8.23438C57.0973 6.84091 58.1072 5.63281 59.6605 5.63281C61.1435 5.63281 62.1151 6.73224 62.1214 8.23438H57.0206ZM75.0142 14.1982C77.3345 14.1982 78.8366 12.8047 79.0476 10.8935H77.1875C76.9446 11.9545 76.12 12.581 75.027 12.581C73.4098 12.581 72.3679 11.2322 72.3679 9.09091C72.3679 6.98793 73.429 5.66477 75.027 5.66477C76.2415 5.66477 76.983 6.43182 77.1875 7.35227H79.0476C78.843 5.37074 77.2259 4.05398 74.995 4.05398C72.2273 4.05398 70.4375 6.13778 70.4375 9.13565C70.4375 12.0952 72.1634 14.1982 75.0142 14.1982ZM147.879 33.6349L144.772 26.1818H142.369V36H144.242V28.8601L147.169 36H148.588L151.567 28.8857V36H153.427V26.1818H151.049L147.879 33.6349ZM157.847 29.5568V26.1818H155.974V36H160.263C162.667 36 164.009 34.6065 164.009 32.7592C164.009 30.8736 162.667 29.5568 160.263 29.5568H157.847ZM165.403 36H167.314V26.1818H165.403V36ZM157.847 31.206H160.263C161.363 31.206 162.149 31.8707 162.149 32.8168C162.149 33.7116 161.363 34.3509 160.263 34.3509H157.847V31.206ZM173.683 38.8317H175.575V36H182.421V38.8317H184.288V34.3445H182.779V26.1818H176.106L175.799 29.8445C175.595 32.3182 175.294 33.6094 174.482 34.3445H173.683V38.8317ZM176.528 34.3445C177.18 33.4304 177.423 31.9091 177.615 29.8445L177.819 27.8182H180.913V34.3445H176.528ZM189.013 36.2173C190.637 36.2173 191.551 35.3928 191.915 34.6577H191.992V36H193.858V29.4801C193.858 26.6229 191.608 26.054 190.049 26.054C188.272 26.054 186.635 26.7699 185.996 28.5597L187.792 28.9688C188.074 28.272 188.789 27.6009 190.074 27.6009C191.308 27.6009 191.941 28.2464 191.941 29.3587V29.4034C191.941 30.1001 191.225 30.0874 189.461 30.2919C187.6 30.5092 185.696 30.995 185.696 33.2259C185.696 35.1562 187.147 36.2173 189.013 36.2173ZM189.429 34.6832C188.348 34.6832 187.569 34.1974 187.569 33.2514C187.569 32.2287 188.476 31.8643 189.582 31.7173C190.202 31.6342 191.672 31.468 191.947 31.1932V32.4588C191.947 33.6222 191.02 34.6832 189.429 34.6832ZM196.404 39.6818H198.315V34.4723H198.43C198.775 35.0987 199.479 36.1918 201.268 36.1918C203.646 36.1918 205.372 34.2869 205.372 31.1101C205.372 27.9268 203.621 26.054 201.249 26.054C199.427 26.054 198.769 27.1662 198.43 27.7734H198.27V26.1818H196.404V39.6818ZM198.277 31.0909C198.277 29.0391 199.172 27.6776 200.84 27.6776C202.572 27.6776 203.442 29.1413 203.442 31.0909C203.442 33.0597 202.547 34.5618 200.84 34.5618C199.197 34.5618 198.277 33.1555 198.277 31.0909ZM209.386 33.3217V26.1818H207.513V36H209.591L213.899 28.8537V36H215.772V26.1818H213.714L209.386 33.3217ZM223.851 33.6349L220.745 26.1818H218.341V36H220.214V28.8601L223.142 36H224.561L227.54 28.8857V36H229.4V26.1818H227.022L223.851 33.6349ZM233.206 28.9751C233.903 28.9751 234.485 28.4062 234.485 27.6967C234.485 27 233.903 26.4247 233.206 26.4247C232.503 26.4247 231.928 27 231.928 27.6967C231.928 28.4062 232.503 28.9751 233.206 28.9751ZM233.206 36.1214C233.903 36.1214 234.485 35.5526 234.485 34.843C234.485 34.1463 233.903 33.571 233.206 33.571C232.503 33.571 231.928 34.1463 231.928 34.843C231.928 35.5526 232.503 36.1214 233.206 36.1214Z" fill="#E4E5EA"/>
<path d="M93.8196 0.576704C93.3402 0.915483 92.5732 0.909091 91.5249 0.909091C91.2756 0.909091 91.0135 0.902698 90.7322 0.909091C87.1591 0.941051 85.2926 3.17827 85.2926 7.90838V8.71378C85.2926 12.2805 87.1335 14.1918 90.1058 14.1918C93.0717 14.1918 94.9062 12.2805 94.9062 9.28267C94.9062 6.40625 93.2251 4.68679 90.7195 4.68679C89.1406 4.68679 88.0795 5.37074 87.4915 6.57244H87.3956C87.6257 4.16264 88.5462 3.17188 90.8217 3.14631C92.8352 3.11435 93.8132 3.04403 94.6506 2.35369L93.8196 0.576704ZM90.1186 12.0824C88.8338 12.0824 88.0604 11.0469 88.0604 9.37216C88.0732 7.69744 88.8402 6.75142 90.1058 6.75142C91.3651 6.75142 92.1385 7.69744 92.1385 9.37216C92.1385 11.0533 91.3651 12.0824 90.1186 12.0824ZM101.188 14.1918C103.617 14.1918 105.253 13.0092 105.637 11.1875L103.118 11.0213C102.844 11.7692 102.14 12.1591 101.233 12.1591C99.8713 12.1591 99.0083 11.2578 99.0083 9.79403V9.78764H105.694V9.03977C105.694 5.70312 103.675 4.05398 101.079 4.05398C98.1902 4.05398 96.3173 6.10582 96.3173 9.13565C96.3173 12.2486 98.1646 14.1918 101.188 14.1918ZM99.0083 8.10014C99.0659 6.98153 99.916 6.08665 101.124 6.08665C102.307 6.08665 103.125 6.9304 103.131 8.10014H99.0083ZM111.907 14.1918C114.522 14.1918 116.165 12.6577 116.292 10.4013H113.723C113.563 11.4496 112.873 12.0376 111.939 12.0376C110.667 12.0376 109.843 10.9702 109.843 9.09091C109.843 7.23722 110.674 6.17614 111.939 6.17614C112.937 6.17614 113.576 6.83452 113.723 7.8125H116.292C116.177 5.54332 114.458 4.05398 111.895 4.05398C108.916 4.05398 107.075 6.11861 107.075 9.12926C107.075 12.1143 108.884 14.1918 111.907 14.1918ZM118.036 14H120.605V6.32315H124.019V14H126.62V4.18182H118.036V14ZM128.218 14H129.037C131.12 14 132.226 12.6193 132.392 9.32102L132.546 6.32315H134.968V14H137.564V4.18182H130.098L129.938 8.52841C129.842 11.0149 129.458 11.8395 128.532 11.8395H128.206L128.218 14ZM142.474 14.1854C143.925 14.1854 144.865 13.5526 145.344 12.6385H145.421V14H148.003V7.37784C148.003 5.03835 146.022 4.05398 143.836 4.05398C141.483 4.05398 139.937 5.17898 139.559 6.96875L142.078 7.1733C142.263 6.52131 142.845 6.0419 143.823 6.0419C144.75 6.0419 145.28 6.50852 145.28 7.31392V7.35227C145.28 7.98509 144.609 8.06818 142.903 8.23438C140.959 8.41335 139.214 9.06534 139.214 11.2578C139.214 13.201 140.601 14.1854 142.474 14.1854ZM143.254 12.3061C142.417 12.3061 141.816 11.9162 141.816 11.1683C141.816 10.4013 142.449 10.0241 143.407 9.88991C144.002 9.80682 144.974 9.66619 145.3 9.44886V10.4908C145.3 11.5199 144.449 12.3061 143.254 12.3061ZM149.148 6.32315H152.286V14H154.881V6.32315H158.045V4.18182H149.148V6.32315ZM162.298 4.18182H159.696V14H162.298V10.1456H165.653V14H168.236V4.18182H165.653V8.00426H162.298V4.18182ZM174.784 14.1918C177.763 14.1918 179.617 12.1527 179.617 9.12926C179.617 6.08665 177.763 4.05398 174.784 4.05398C171.806 4.05398 169.952 6.08665 169.952 9.12926C169.952 12.1527 171.806 14.1918 174.784 14.1918ZM174.797 12.0824C173.423 12.0824 172.72 10.8232 172.72 9.11009C172.72 7.39702 173.423 6.13139 174.797 6.13139C176.146 6.13139 176.849 7.39702 176.849 9.11009C176.849 10.8232 176.146 12.0824 174.797 12.0824ZM183.989 10.4077V4.18182H181.387V14H184.091L187.613 7.75497V14H190.208V4.18182H187.524L183.989 10.4077ZM187.057 0.755681C187.057 1.35653 186.699 1.89986 185.792 1.89986C184.858 1.89986 184.513 1.34375 184.52 0.755681H182.634C182.634 2.30256 183.855 3.33807 185.792 3.33807C187.728 3.33807 188.949 2.30256 188.956 0.755681H187.057ZM0.0866478 36H2.80966V32.5163H3.82599L6.24858 36H9.48295L5.97372 31.0526L9.4446 26.1818H6.24858L3.5767 29.9915H2.80966V26.1818H0.0866478V36ZM14.6653 36.1918C17.644 36.1918 19.4977 34.1527 19.4977 31.1293C19.4977 28.0866 17.644 26.054 14.6653 26.054C11.6866 26.054 9.83292 28.0866 9.83292 31.1293C9.83292 34.1527 11.6866 36.1918 14.6653 36.1918ZM14.6781 34.0824C13.3038 34.0824 12.6007 32.8232 12.6007 31.1101C12.6007 29.397 13.3038 28.1314 14.6781 28.1314C16.0268 28.1314 16.7299 29.397 16.7299 31.1101C16.7299 32.8232 16.0268 34.0824 14.6781 34.0824ZM23.8699 26.1818H21.2683V36H23.8699V32.1456H27.2257V36H29.8081V26.1818H27.2257V30.0043H23.8699V26.1818ZM36.3567 36.1918C38.9711 36.1918 40.6138 34.6577 40.7417 32.4013H38.1721C38.0123 33.4496 37.3219 34.0376 36.3887 34.0376C35.1167 34.0376 34.2921 32.9702 34.2921 31.0909C34.2921 29.2372 35.123 28.1761 36.3887 28.1761C37.3858 28.1761 38.025 28.8345 38.1721 29.8125H40.7417C40.6266 27.5433 38.9071 26.054 36.3439 26.054C33.3652 26.054 31.5243 28.1186 31.5243 31.1293C31.5243 34.1143 33.3333 36.1918 36.3567 36.1918ZM44.1662 39.6818C46.1925 39.6818 47.2663 38.6463 47.8224 37.0611L51.6385 26.1946L48.7557 26.1818L46.7038 33.392H46.6016L44.5689 26.1818H41.7053L45.2273 36.2812L45.0675 36.6967C44.7095 37.6172 44.0256 37.6619 43.0668 37.3679L42.4531 39.4006C42.843 39.5668 43.4759 39.6818 44.1662 39.6818ZM51.6657 36H52.4838C54.5676 36 55.6735 34.6193 55.8397 31.321L55.9931 28.3232H58.4157V36H61.0108V26.1818H53.5449L53.3851 30.5284C53.2892 33.0149 52.9057 33.8395 51.9789 33.8395H51.6529L51.6657 36ZM65.7234 29.1989V26.1818H63.1218V36H67.7624C70.364 36 71.8917 34.6385 71.8981 32.6122C71.8917 30.5476 70.364 29.1989 67.7624 29.1989H65.7234ZM65.7234 31.3402H67.7624C68.6765 31.3402 69.3221 31.8771 69.3349 32.6314C69.3221 33.3473 68.6765 33.8587 67.7624 33.8587H65.7234V31.3402ZM72.1729 28.3232H75.3114V36H77.9066V28.3232H81.0707V26.1818H72.1729V28.3232ZM85.1696 36.1854C86.6206 36.1854 87.5602 35.5526 88.0396 34.6385H88.1163V36H90.6987V29.3778C90.6987 27.0384 88.7172 26.054 86.5311 26.054C84.1788 26.054 82.6319 27.179 82.2548 28.9688L84.7733 29.1733C84.9586 28.5213 85.5403 28.0419 86.5183 28.0419C87.4451 28.0419 87.9757 28.5085 87.9757 29.3139V29.3523C87.9757 29.9851 87.3045 30.0682 85.5978 30.2344C83.6547 30.4134 81.9096 31.0653 81.9096 33.2578C81.9096 35.201 83.2967 36.1854 85.1696 36.1854ZM85.9494 34.3061C85.112 34.3061 84.5112 33.9162 84.5112 33.1683C84.5112 32.4013 85.144 32.0241 86.1028 31.8899C86.6973 31.8068 87.6689 31.6662 87.9949 31.4489V32.4908C87.9949 33.5199 87.1447 34.3061 85.9494 34.3061ZM101.396 26.1818H98.8262V33.8587H95.4128V26.1818H92.8113V36H100.316V39.1577H102.962V34.1207H101.396V26.1818ZM107.243 32.4077V26.1818H104.641V36H107.345L110.867 29.755V36H113.462V26.1818H110.778L107.243 32.4077ZM120.12 36.1918C122.549 36.1918 124.185 35.0092 124.569 33.1875L122.05 33.0213C121.775 33.7692 121.072 34.1591 120.164 34.1591C118.803 34.1591 117.94 33.2578 117.94 31.794V31.7876H124.626V31.0398C124.626 27.7031 122.606 26.054 120.011 26.054C117.122 26.054 115.249 28.1058 115.249 31.1357C115.249 34.2486 117.096 36.1918 120.12 36.1918ZM117.94 30.1001C117.998 28.9815 118.848 28.0866 120.056 28.0866C121.238 28.0866 122.056 28.9304 122.063 30.1001H117.94ZM129.005 32.4077V26.1818H126.403V36H129.107L132.629 29.755V36H135.224V26.1818H132.539L129.005 32.4077ZM132.073 22.7557C132.073 23.3565 131.715 23.8999 130.807 23.8999C129.874 23.8999 129.529 23.3438 129.535 22.7557H127.65C127.65 24.3026 128.87 25.3381 130.807 25.3381C132.744 25.3381 133.965 24.3026 133.971 22.7557H132.073Z" fill="url(#paint0_linear_0_90)"/>
<defs>
<linearGradient id="paint0_linear_0_90" x1="-1" y1="19.2944" x2="271" y2="19.2944" gradientUnits="userSpaceOnUse">
<stop offset="0.369906" stop-color="#FCB045"/>
<stop offset="1" stop-color="#FD1D1D"/>
</linearGradient>
</defs>
</svg>
