<svg width="117" height="15" viewBox="0 0 117 15" fill="none" xmlns="http://www.w3.org/2000/svg">
<path d="M4.53864 14H0.300713V0.909091H4.67287C5.95554 0.909091 7.05711 1.17116 7.97756 1.69531C8.89801 2.2152 9.60327 2.96307 10.0933 3.93892C10.5876 4.91051 10.8348 6.07599 10.8348 7.43537C10.8348 8.79901 10.5855 9.97088 10.0869 10.951C9.59262 11.9311 8.87671 12.6854 7.93921 13.2138C7.00171 13.7379 5.86818 14 4.53864 14ZM2.27586 12.2741H4.42998C5.42713 12.2741 6.25597 12.0866 6.91648 11.7116C7.57699 11.3324 8.07131 10.7848 8.39944 10.0689C8.72756 9.34872 8.89162 8.47088 8.89162 7.43537C8.89162 6.40838 8.72756 5.53693 8.39944 4.82102C8.07557 4.10511 7.59191 3.56179 6.94844 3.19105C6.30497 2.82031 5.50597 2.63494 4.55142 2.63494H2.27586V12.2741ZM14.6464 14H12.5498L17.2607 0.909091H19.5427L24.2536 14H22.157L18.456 3.28693H18.3538L14.6464 14ZM14.9979 8.87358H21.7991V10.5355H14.9979V8.87358ZM34.0785 4.34801C34.0103 3.7429 33.7291 3.27415 33.2348 2.94176C32.7405 2.60511 32.1183 2.43679 31.3683 2.43679C30.8314 2.43679 30.3669 2.52202 29.9748 2.69247C29.5828 2.85866 29.2781 3.08878 29.0608 3.38281C28.8477 3.67258 28.7412 4.00284 28.7412 4.37358C28.7412 4.68466 28.8136 4.95312 28.9585 5.17898C29.1076 5.40483 29.3015 5.59446 29.5402 5.74787C29.7831 5.89702 30.043 6.02273 30.32 6.125C30.597 6.22301 30.8633 6.30398 31.119 6.3679L32.3974 6.70028C32.815 6.80256 33.2433 6.94105 33.6822 7.11577C34.1211 7.29048 34.5281 7.5206 34.9031 7.80611C35.2781 8.09162 35.5806 8.44531 35.8108 8.86719C36.0451 9.28906 36.1623 9.79403 36.1623 10.3821C36.1623 11.1236 35.9706 11.782 35.587 12.3572C35.2078 12.9325 34.6559 13.3864 33.9315 13.7188C33.2113 14.0511 32.3399 14.2173 31.3172 14.2173C30.337 14.2173 29.489 14.0618 28.7731 13.7507C28.0572 13.4396 27.4968 12.9986 27.092 12.4276C26.6872 11.8523 26.4635 11.1705 26.4208 10.3821H28.4024C28.4407 10.8551 28.5941 11.2493 28.8626 11.5646C29.1353 11.8757 29.4826 12.108 29.9045 12.2614C30.3306 12.4105 30.7973 12.4851 31.3044 12.4851C31.8626 12.4851 32.3591 12.3977 32.7937 12.223C33.2326 12.044 33.5778 11.7969 33.8292 11.4815C34.0806 11.1619 34.2064 10.7891 34.2064 10.3629C34.2064 9.97514 34.0956 9.65767 33.874 9.41051C33.6566 9.16335 33.3605 8.95881 32.9855 8.79688C32.6147 8.63494 32.195 8.49219 31.7262 8.36861L30.1794 7.94673C29.1311 7.66122 28.3001 7.24148 27.6865 6.6875C27.0771 6.13352 26.7724 5.40057 26.7724 4.48864C26.7724 3.73437 26.977 3.07599 27.386 2.51349C27.7951 1.95099 28.3491 1.5142 29.048 1.20312C29.7468 0.887784 30.5352 0.730113 31.413 0.730113C32.2994 0.730113 33.0814 0.885653 33.7589 1.19673C34.4407 1.50781 34.9777 1.93608 35.3697 2.48153C35.7618 3.02273 35.9663 3.64489 35.9833 4.34801H34.0785ZM39.4226 14V0.909091H41.3977V6.59801H47.924V0.909091H49.9055V14H47.924V8.2919H41.3977V14H39.4226ZM53.682 14V0.909091H58.476C59.405 0.909091 60.1741 1.0625 60.7835 1.36932C61.3929 1.67187 61.8489 2.0831 62.1514 2.60298C62.454 3.11861 62.6053 3.70028 62.6053 4.34801C62.6053 4.89347 62.5051 5.35369 62.3048 5.72869C62.1045 6.09943 61.8361 6.39773 61.4994 6.62358C61.167 6.84517 60.8006 7.0071 60.4 7.10938V7.23722C60.8347 7.25852 61.2587 7.39915 61.672 7.65909C62.0896 7.91477 62.4348 8.27912 62.7075 8.75213C62.9803 9.22514 63.1166 9.80043 63.1166 10.478C63.1166 11.147 62.959 11.7479 62.6436 12.2805C62.3325 12.8089 61.851 13.2287 61.199 13.5398C60.547 13.8466 59.7139 14 58.6997 14H53.682ZM55.6571 12.3061H58.508C59.454 12.3061 60.1315 12.1229 60.5406 11.7564C60.9497 11.3899 61.1543 10.9318 61.1543 10.3821C61.1543 9.96875 61.0499 9.58949 60.8411 9.24432C60.6322 8.89915 60.334 8.62429 59.9462 8.41974C59.5626 8.2152 59.1067 8.11293 58.5783 8.11293H55.6571V12.3061ZM55.6571 6.57244H58.3034C58.7466 6.57244 59.145 6.48722 59.4987 6.31676C59.8567 6.14631 60.1401 5.90767 60.3489 5.60085C60.5619 5.28977 60.6685 4.9233 60.6685 4.50142C60.6685 3.96023 60.4788 3.50639 60.0996 3.13991C59.7203 2.77344 59.1386 2.5902 58.3545 2.5902H55.6571V6.57244ZM77.7308 7.45455C77.7308 8.85227 77.4751 10.054 76.9637 11.0597C76.4523 12.0611 75.7514 12.8324 74.8607 13.3736C73.9744 13.9105 72.9666 14.179 71.8373 14.179C70.7038 14.179 69.6917 13.9105 68.8011 13.3736C67.9147 12.8324 67.2158 12.0589 66.7045 11.0533C66.1931 10.0476 65.9374 8.84801 65.9374 7.45455C65.9374 6.05682 66.1931 4.85724 66.7045 3.85582C67.2158 2.85014 67.9147 2.07883 68.8011 1.5419C69.6917 1.00071 70.7038 0.730113 71.8373 0.730113C72.9666 0.730113 73.9744 1.00071 74.8607 1.5419C75.7514 2.07883 76.4523 2.85014 76.9637 3.85582C77.4751 4.85724 77.7308 6.05682 77.7308 7.45455ZM75.7748 7.45455C75.7748 6.3892 75.6022 5.49219 75.257 4.76349C74.9161 4.03054 74.4474 3.47656 73.8508 3.10156C73.2585 2.7223 72.5873 2.53267 71.8373 2.53267C71.083 2.53267 70.4097 2.7223 69.8174 3.10156C69.2251 3.47656 68.7563 4.03054 68.4112 4.76349C68.0702 5.49219 67.8998 6.3892 67.8998 7.45455C67.8998 8.51989 68.0702 9.41903 68.4112 10.152C68.7563 10.8807 69.2251 11.4347 69.8174 11.8139C70.4097 12.1889 71.083 12.3764 71.8373 12.3764C72.5873 12.3764 73.2585 12.1889 73.8508 11.8139C74.4474 11.4347 74.9161 10.8807 75.257 10.152C75.6022 9.41903 75.7748 8.51989 75.7748 7.45455ZM81.5487 14H79.4521L84.1631 0.909091H86.445L91.156 14H89.0594L85.3584 3.28693H85.2561L81.5487 14ZM81.9003 8.87358H88.7014V10.5355H81.9003V8.87358ZM93.9464 14V0.909091H98.6126C99.6268 0.909091 100.468 1.08381 101.137 1.43324C101.811 1.78267 102.314 2.26633 102.646 2.88423C102.978 3.49787 103.145 4.20739 103.145 5.01278C103.145 5.81392 102.976 6.51918 102.64 7.12855C102.307 7.73366 101.804 8.20455 101.131 8.54119C100.462 8.87784 99.6204 9.04616 98.6062 9.04616H95.0714V7.34588H98.4272C99.0664 7.34588 99.5863 7.25426 99.9869 7.07102C100.392 6.88778 100.688 6.62145 100.875 6.27202C101.063 5.92258 101.157 5.50284 101.157 5.01278C101.157 4.51847 101.061 4.0902 100.869 3.72798C100.682 3.36577 100.385 3.08878 99.9805 2.89702C99.5799 2.70099 99.0537 2.60298 98.4017 2.60298H95.9216V14H93.9464ZM100.409 8.09375L103.643 14H101.393L98.2227 8.09375H100.409ZM110.686 14H106.448V0.909091H110.82C112.103 0.909091 113.204 1.17116 114.125 1.69531C115.045 2.2152 115.751 2.96307 116.241 3.93892C116.735 4.91051 116.982 6.07599 116.982 7.43537C116.982 8.79901 116.733 9.97088 116.234 10.951C115.74 11.9311 115.024 12.6854 114.086 13.2138C113.149 13.7379 112.015 14 110.686 14ZM108.423 12.2741H110.577C111.574 12.2741 112.403 12.0866 113.064 11.7116C113.724 11.3324 114.219 10.7848 114.547 10.0689C114.875 9.34872 115.039 8.47088 115.039 7.43537C115.039 6.40838 114.875 5.53693 114.547 4.82102C114.223 4.10511 113.739 3.56179 113.096 3.19105C112.452 2.82031 111.653 2.63494 110.699 2.63494H108.423V12.2741Z" fill="#E4E5EA"/>
</svg>
