<svg width="98" height="18" viewBox="0 0 98 18" fill="none" xmlns="http://www.w3.org/2000/svg">
<path d="M0.0460212 14V0.909091H4.84006C5.76903 0.909091 6.53821 1.0625 7.14758 1.36932C7.75696 1.67187 8.21292 2.0831 8.51548 2.60298C8.81804 3.11861 8.96932 3.70028 8.96932 4.34801C8.96932 4.89347 8.86918 5.35369 8.66889 5.72869C8.46861 6.09943 8.20014 6.39773 7.86349 6.62358C7.53111 6.84517 7.16463 7.0071 6.76406 7.10938V7.23722C7.19872 7.25852 7.62273 7.39915 8.03608 7.65909C8.45369 7.91477 8.79886 8.27912 9.07159 8.75213C9.34432 9.22514 9.48068 9.80043 9.48068 10.478C9.48068 11.147 9.32301 11.7479 9.00767 12.2805C8.69659 12.8089 8.21506 13.2287 7.56307 13.5398C6.91108 13.8466 6.07798 14 5.06378 14H0.0460212ZM2.02116 12.3061H4.87202C5.81804 12.3061 6.4956 12.1229 6.90469 11.7564C7.31378 11.3899 7.51832 10.9318 7.51832 10.3821C7.51832 9.96875 7.41392 9.58949 7.20511 9.24432C6.99631 8.89915 6.69801 8.62429 6.31023 8.41974C5.9267 8.2152 5.47074 8.11293 4.94233 8.11293H2.02116V12.3061ZM2.02116 6.57244H4.66747C5.11065 6.57244 5.50909 6.48722 5.86278 6.31676C6.22074 6.14631 6.50412 5.90767 6.71292 5.60085C6.92599 5.28977 7.03253 4.9233 7.03253 4.50142C7.03253 3.96023 6.8429 3.50639 6.46364 3.13991C6.08437 2.77344 5.5027 2.5902 4.71861 2.5902H2.02116V6.57244ZM12.7234 0.909091H14.6793V10.5227H14.8008L21.4613 0.909091H23.2894V14H21.3143V4.39915H21.1928L14.5451 14H12.7234V0.909091ZM26.0799 17.1641V12.3253H26.9428C27.2368 12.0781 27.5117 11.7266 27.7674 11.2706C28.023 10.8146 28.2404 10.1989 28.4194 9.4233C28.5983 8.64773 28.7219 7.6527 28.7901 6.43821L29.0969 0.909091H37.1701V12.3253H38.653V17.1449H36.761V14H27.9719V17.1641H26.0799ZM29.2695 12.3253H35.278V2.60938H30.8867L30.6821 6.43821C30.6267 7.36293 30.5351 8.19389 30.4073 8.93111C30.2837 9.66832 30.1239 10.3203 29.9279 10.8871C29.7361 11.4496 29.5167 11.929 29.2695 12.3253ZM50.2054 0.909091V14H48.2494V0.909091H50.2054ZM40.7771 14L44.9703 7.14773L41.0711 0.909091H43.4873L46.7345 6.57244H51.765L54.9866 0.909091H57.3964L53.51 7.16051L57.6777 14H55.3701L52.0782 8.41335H46.3957L43.0591 14H40.7771ZM60.5113 14V0.909091H68.7186V2.60938H62.4864V6.59801H68.2904V8.2919H62.4864V12.2997H68.7953V14H60.5113ZM71.6114 2.60938V0.909091H81.7428V2.60938H77.6582V14H75.6895V2.60938H71.6114ZM86.2686 6.18892H89.7971C90.7686 6.18892 91.5953 6.34659 92.2772 6.66193C92.959 6.97727 93.4789 7.42258 93.8368 7.99787C94.199 8.57315 94.378 9.25071 94.3738 10.0305C94.378 10.8104 94.199 11.4986 93.8368 12.0952C93.4789 12.6918 92.959 13.1584 92.2772 13.495C91.5953 13.8317 90.7686 14 89.7971 14H84.8944V0.909091H86.8759V12.3381H89.7971C90.3638 12.3381 90.8411 12.2273 91.2289 12.0057C91.6209 11.7841 91.9171 11.4964 92.1174 11.1428C92.3219 10.7891 92.4242 10.4098 92.4242 10.005C92.4242 9.4169 92.1983 8.91193 91.7466 8.49006C91.2949 8.06392 90.6451 7.85085 89.7971 7.85085H86.2686V6.18892ZM97.5634 0.909091V14H95.5819V0.909091H97.5634Z" fill="#E4E5EA"/>
</svg>
