<svg width="128" height="30" viewBox="0 0 128 30" fill="none" xmlns="http://www.w3.org/2000/svg">
<path d="M7.57238 9.08C6.76171 9.08 6.03104 8.89867 5.38038 8.536C4.72971 8.16267 4.21771 7.65067 3.84438 7C3.47104 6.34933 3.28438 5.61333 3.28438 4.792C3.28438 3.97067 3.47104 3.23467 3.84438 2.584C4.21771 1.93333 4.72971 1.42667 5.38038 1.064C6.03104 0.701333 6.76171 0.52 7.57238 0.52C8.38304 0.52 9.11371 0.701333 9.76438 1.064C10.415 1.42667 10.9217 1.93333 11.2844 2.584C11.6577 3.23467 11.8444 3.97067 11.8444 4.792C11.8444 5.61333 11.6577 6.34933 11.2844 7C10.9217 7.65067 10.415 8.16267 9.76438 8.536C9.11371 8.89867 8.38304 9.08 7.57238 9.08ZM7.57238 8.072C8.16971 8.072 8.70304 7.93867 9.17238 7.672C9.65238 7.39467 10.0257 7.00533 10.2924 6.504C10.559 6.00267 10.6924 5.432 10.6924 4.792C10.6924 4.152 10.559 3.58133 10.2924 3.08C10.0257 2.57867 9.65238 2.19467 9.17238 1.928C8.70304 1.65067 8.16971 1.512 7.57238 1.512C6.97504 1.512 6.43638 1.65067 5.95638 1.928C5.48704 2.19467 5.11371 2.57867 4.83637 3.08C4.56971 3.58133 4.43638 4.152 4.43638 4.792C4.43638 5.432 4.56971 6.00267 4.83637 6.504C5.11371 7.00533 5.48704 7.39467 5.95638 7.672C6.43638 7.93867 6.97504 8.072 7.57238 8.072ZM19.8798 1.592H16.6958V9H15.5598V1.592H12.3758V0.584H19.8798V1.592ZM29.2146 8.008V11.032H28.1426V9H20.6066V11.032H19.5346V8.008H20.0146C20.58 7.976 20.964 7.56 21.1666 6.76C21.3693 5.96 21.508 4.84 21.5826 3.4L21.6946 0.584H27.9026V8.008H29.2146ZM22.6226 3.464C22.5693 4.65867 22.468 5.64533 22.3186 6.424C22.1693 7.192 21.9026 7.72 21.5186 8.008H26.7666V1.592H22.7186L22.6226 3.464ZM38.7885 5.144H31.7485C31.8125 6.01867 32.1485 6.728 32.7565 7.272C33.3645 7.80533 34.1325 8.072 35.0605 8.072C35.5832 8.072 36.0632 7.98133 36.5005 7.8C36.9378 7.608 37.3165 7.33067 37.6365 6.968L38.2765 7.704C37.9032 8.152 37.4338 8.49333 36.8685 8.728C36.3138 8.96267 35.7005 9.08 35.0285 9.08C34.1645 9.08 33.3965 8.89867 32.7245 8.536C32.0632 8.16267 31.5458 7.65067 31.1725 7C30.7992 6.34933 30.6125 5.61333 30.6125 4.792C30.6125 3.97067 30.7885 3.23467 31.1405 2.584C31.5032 1.93333 31.9938 1.42667 32.6125 1.064C33.2418 0.701333 33.9458 0.52 34.7245 0.52C35.5032 0.52 36.2018 0.701333 36.8205 1.064C37.4392 1.42667 37.9245 1.93333 38.2765 2.584C38.6285 3.224 38.8045 3.96 38.8045 4.792L38.7885 5.144ZM34.7245 1.496C33.9138 1.496 33.2312 1.75733 32.6765 2.28C32.1325 2.792 31.8232 3.464 31.7485 4.296H37.7165C37.6418 3.464 37.3272 2.792 36.7725 2.28C36.2285 1.75733 35.5458 1.496 34.7245 1.496ZM48.0273 0.584V9H46.8913V1.592H42.8593L42.7473 3.672C42.6619 5.42133 42.4593 6.76533 42.1393 7.704C41.8193 8.64267 41.2486 9.112 40.4273 9.112C40.2033 9.112 39.9313 9.06933 39.6113 8.984L39.6913 8.008C39.8833 8.05067 40.0166 8.072 40.0913 8.072C40.5286 8.072 40.8593 7.86933 41.0833 7.464C41.3073 7.05867 41.4566 6.55733 41.5312 5.96C41.6059 5.36267 41.6699 4.57333 41.7233 3.592L41.8673 0.584H48.0273ZM54.1526 0.52C55.2513 0.52 56.094 0.797333 56.6806 1.352C57.2673 1.896 57.5606 2.70667 57.5606 3.784V9H56.4726V7.688C56.2166 8.12533 55.838 8.46667 55.3366 8.712C54.846 8.95733 54.2593 9.08 53.5766 9.08C52.638 9.08 51.8913 8.856 51.3366 8.408C50.782 7.96 50.5046 7.368 50.5046 6.632C50.5046 5.91733 50.7606 5.34133 51.2726 4.904C51.7953 4.46667 52.622 4.248 53.7526 4.248H56.4246V3.736C56.4246 3.01067 56.222 2.46133 55.8166 2.088C55.4113 1.704 54.8193 1.512 54.0406 1.512C53.5073 1.512 52.9953 1.60267 52.5046 1.784C52.014 1.95467 51.5926 2.19467 51.2406 2.504L50.7286 1.656C51.1553 1.29333 51.6673 1.016 52.2646 0.823999C52.862 0.621333 53.4913 0.52 54.1526 0.52ZM53.7526 8.184C54.3926 8.184 54.942 8.04 55.4006 7.752C55.8593 7.45333 56.2006 7.02667 56.4246 6.472V5.096H53.7846C52.3446 5.096 51.6246 5.59733 51.6246 6.6C51.6246 7.09067 51.8113 7.48 52.1846 7.768C52.558 8.04533 53.0806 8.184 53.7526 8.184ZM72.3243 0.584V9H71.1883V1.592H65.9083V9H64.7723V0.584H72.3243ZM79.8895 0.52C80.6788 0.52 81.3935 0.701333 82.0335 1.064C82.6735 1.416 83.1748 1.91733 83.5375 2.568C83.9002 3.21867 84.0815 3.96 84.0815 4.792C84.0815 5.63467 83.9002 6.38133 83.5375 7.032C83.1748 7.68267 82.6735 8.18933 82.0335 8.552C81.4042 8.904 80.6895 9.08 79.8895 9.08C79.2068 9.08 78.5882 8.94133 78.0335 8.664C77.4895 8.376 77.0415 7.96 76.6895 7.416V12.104H75.5535V0.584H76.6415V2.248C76.9828 1.69333 77.4308 1.26667 77.9855 0.967999C78.5508 0.669333 79.1855 0.52 79.8895 0.52ZM79.8095 8.072C80.3962 8.072 80.9295 7.93867 81.4095 7.672C81.8895 7.39467 82.2628 7.00533 82.5295 6.504C82.8068 6.00267 82.9455 5.432 82.9455 4.792C82.9455 4.152 82.8068 3.58667 82.5295 3.096C82.2628 2.59467 81.8895 2.20533 81.4095 1.928C80.9295 1.65067 80.3962 1.512 79.8095 1.512C79.2122 1.512 78.6735 1.65067 78.1935 1.928C77.7242 2.20533 77.3508 2.59467 77.0735 3.096C76.8068 3.58667 76.6735 4.152 76.6735 4.792C76.6735 5.432 76.8068 6.00267 77.0735 6.504C77.3508 7.00533 77.7242 7.39467 78.1935 7.672C78.6735 7.93867 79.2122 8.072 79.8095 8.072ZM89.9943 9.08C89.1836 9.08 88.4529 8.89867 87.8023 8.536C87.1516 8.16267 86.6396 7.65067 86.2663 7C85.8929 6.34933 85.7063 5.61333 85.7063 4.792C85.7063 3.97067 85.8929 3.23467 86.2663 2.584C86.6396 1.93333 87.1516 1.42667 87.8023 1.064C88.4529 0.701333 89.1836 0.52 89.9943 0.52C90.8049 0.52 91.5356 0.701333 92.1863 1.064C92.8369 1.42667 93.3436 1.93333 93.7063 2.584C94.0796 3.23467 94.2663 3.97067 94.2663 4.792C94.2663 5.61333 94.0796 6.34933 93.7063 7C93.3436 7.65067 92.8369 8.16267 92.1863 8.536C91.5356 8.89867 90.8049 9.08 89.9943 9.08ZM89.9943 8.072C90.5916 8.072 91.1249 7.93867 91.5943 7.672C92.0743 7.39467 92.4476 7.00533 92.7143 6.504C92.9809 6.00267 93.1143 5.432 93.1143 4.792C93.1143 4.152 92.9809 3.58133 92.7143 3.08C92.4476 2.57867 92.0743 2.19467 91.5943 1.928C91.1249 1.65067 90.5916 1.512 89.9943 1.512C89.3969 1.512 88.8583 1.65067 88.3783 1.928C87.9089 2.19467 87.5356 2.57867 87.2582 3.08C86.9916 3.58133 86.8583 4.152 86.8583 4.792C86.8583 5.432 86.9916 6.00267 87.2582 6.504C87.5356 7.00533 87.9089 7.39467 88.3783 7.672C88.8583 7.93867 89.3969 8.072 89.9943 8.072ZM104.855 8.008V11.032H103.783V9H96.2473V11.032H95.1753V8.008H95.6553C96.2206 7.976 96.6046 7.56 96.8073 6.76C97.0099 5.96 97.1486 4.84 97.2233 3.4L97.3353 0.584H103.543V8.008H104.855ZM98.2633 3.464C98.2099 4.65867 98.1086 5.64533 97.9593 6.424C97.8099 7.192 97.5433 7.72 97.1593 8.008H102.407V1.592H98.3593L98.2633 3.464ZM109.965 0.52C111.064 0.52 111.906 0.797333 112.493 1.352C113.08 1.896 113.373 2.70667 113.373 3.784V9H112.285V7.688C112.029 8.12533 111.65 8.46667 111.149 8.712C110.658 8.95733 110.072 9.08 109.389 9.08C108.45 9.08 107.704 8.856 107.149 8.408C106.594 7.96 106.317 7.368 106.317 6.632C106.317 5.91733 106.573 5.34133 107.085 4.904C107.608 4.46667 108.434 4.248 109.565 4.248H112.237V3.736C112.237 3.01067 112.034 2.46133 111.629 2.088C111.224 1.704 110.632 1.512 109.853 1.512C109.32 1.512 108.808 1.60267 108.317 1.784C107.826 1.95467 107.405 2.19467 107.053 2.504L106.541 1.656C106.968 1.29333 107.48 1.016 108.077 0.823999C108.674 0.621333 109.304 0.52 109.965 0.52ZM109.565 8.184C110.205 8.184 110.754 8.04 111.213 7.752C111.672 7.45333 112.013 7.02667 112.237 6.472V5.096H109.597C108.157 5.096 107.437 5.59733 107.437 6.6C107.437 7.09067 107.624 7.48 107.997 7.768C108.37 8.04533 108.893 8.184 109.565 8.184ZM123.773 5.256H121.949V9H120.813V5.256H118.989L116.413 9H115.053L118.077 4.664L115.293 0.584H116.525L118.989 4.28H120.813V0.584H121.949V4.28H123.773L126.253 0.584H127.485L124.701 4.68L127.725 9H126.365L123.773 5.256ZM0.725375 20.584H1.86138V27.272L7.47738 20.584H8.48538V29H7.34938V22.312L1.74938 29H0.725375V20.584ZM21.0005 29.096C19.8912 29.096 18.8885 28.8507 17.9925 28.36C17.1072 27.8693 16.4085 27.192 15.8965 26.328C15.3952 25.4533 15.1445 24.4773 15.1445 23.4C15.1445 22.3227 15.3952 21.352 15.8965 20.488C16.4085 19.6133 17.1125 18.9307 18.0085 18.44C18.9045 17.9493 19.9072 17.704 21.0165 17.704C21.8485 17.704 22.6165 17.8427 23.3205 18.12C24.0245 18.3973 24.6218 18.8027 25.1125 19.336L24.3605 20.088C23.4858 19.2027 22.3818 18.76 21.0485 18.76C20.1632 18.76 19.3578 18.9627 18.6325 19.368C17.9072 19.7733 17.3365 20.328 16.9205 21.032C16.5152 21.736 16.3125 22.5253 16.3125 23.4C16.3125 24.2747 16.5152 25.064 16.9205 25.768C17.3365 26.472 17.9072 27.0267 18.6325 27.432C19.3578 27.8373 20.1632 28.04 21.0485 28.04C22.3925 28.04 23.4965 27.592 24.3605 26.696L25.1125 27.448C24.6218 27.9813 24.0192 28.392 23.3045 28.68C22.6005 28.9573 21.8325 29.096 21.0005 29.096ZM35.2845 29L32.7245 25.4C32.4365 25.432 32.1378 25.448 31.8285 25.448H28.8205V29H27.6365V17.8H31.8285C33.2578 17.8 34.3778 18.1413 35.1885 18.824C35.9992 19.5067 36.4045 20.4453 36.4045 21.64C36.4045 22.5147 36.1805 23.256 35.7325 23.864C35.2952 24.4613 34.6658 24.8933 33.8445 25.16L36.5805 29H35.2845ZM31.7965 24.44C32.9058 24.44 33.7538 24.1947 34.3405 23.704C34.9272 23.2133 35.2205 22.5253 35.2205 21.64C35.2205 20.7333 34.9272 20.04 34.3405 19.56C33.7538 19.0693 32.9058 18.824 31.7965 18.824H28.8205V24.44H31.7965ZM50.831 17.8V29H49.695V20.04L45.295 27.576H44.735L40.335 20.088V29H39.199V17.8H40.175L45.039 26.104L49.855 17.8H50.831ZM61.9798 29.08C61.1478 29.08 60.4011 28.8987 59.7398 28.536C59.0891 28.1733 58.5771 27.6667 58.2038 27.016C57.8304 26.3547 57.6438 25.6133 57.6438 24.792C57.6438 23.9707 57.8304 23.2347 58.2038 22.584C58.5771 21.9333 59.0891 21.4267 59.7398 21.064C60.4011 20.7013 61.1478 20.52 61.9798 20.52C62.7051 20.52 63.3504 20.664 63.9158 20.952C64.4918 21.2293 64.9451 21.64 65.2758 22.184L64.4278 22.76C64.1504 22.344 63.7984 22.0347 63.3718 21.832C62.9451 21.6187 62.4811 21.512 61.9798 21.512C61.3718 21.512 60.8224 21.6507 60.3318 21.928C59.8518 22.1947 59.4731 22.5787 59.1957 23.08C58.9291 23.5813 58.7958 24.152 58.7958 24.792C58.7958 25.4427 58.9291 26.0187 59.1957 26.52C59.4731 27.0107 59.8518 27.3947 60.3318 27.672C60.8224 27.9387 61.3718 28.072 61.9798 28.072C62.4811 28.072 62.9451 27.9707 63.3718 27.768C63.7984 27.5653 64.1504 27.256 64.4278 26.84L65.2758 27.416C64.9451 27.96 64.4918 28.376 63.9158 28.664C63.3398 28.9413 62.6944 29.08 61.9798 29.08ZM67.4754 20.584H68.6114V27.272L74.2274 20.584H75.2354V29H74.0994V22.312L68.4994 29H67.4754V20.584ZM82.011 29.08C81.179 29.08 80.4323 28.8987 79.771 28.536C79.1203 28.1733 78.6083 27.6667 78.235 27.016C77.8617 26.3547 77.675 25.6133 77.675 24.792C77.675 23.9707 77.8617 23.2347 78.235 22.584C78.6083 21.9333 79.1203 21.4267 79.771 21.064C80.4323 20.7013 81.179 20.52 82.011 20.52C82.7363 20.52 83.3817 20.664 83.947 20.952C84.523 21.2293 84.9763 21.64 85.307 22.184L84.459 22.76C84.1817 22.344 83.8297 22.0347 83.403 21.832C82.9763 21.6187 82.5123 21.512 82.011 21.512C81.403 21.512 80.8537 21.6507 80.363 21.928C79.883 22.1947 79.5043 22.5787 79.227 23.08C78.9603 23.5813 78.827 24.152 78.827 24.792C78.827 25.4427 78.9603 26.0187 79.227 26.52C79.5043 27.0107 79.883 27.3947 80.363 27.672C80.8537 27.9387 81.403 28.072 82.011 28.072C82.5123 28.072 82.9763 27.9707 83.403 27.768C83.8297 27.5653 84.1817 27.256 84.459 26.84L85.307 27.416C84.9763 27.96 84.523 28.376 83.947 28.664C83.371 28.9413 82.7257 29.08 82.011 29.08ZM93.2704 21.592H90.0864V29H88.9504V21.592H85.7664V20.584H93.2704V21.592ZM101.882 25.144H94.8423C94.9063 26.0187 95.2423 26.728 95.8503 27.272C96.4583 27.8053 97.2263 28.072 98.1543 28.072C98.6769 28.072 99.1569 27.9813 99.5943 27.8C100.032 27.608 100.41 27.3307 100.73 26.968L101.37 27.704C100.997 28.152 100.528 28.4933 99.9623 28.728C99.4076 28.9627 98.7943 29.08 98.1223 29.08C97.2583 29.08 96.4903 28.8987 95.8183 28.536C95.1569 28.1627 94.6396 27.6507 94.2663 27C93.8929 26.3493 93.7063 25.6133 93.7063 24.792C93.7063 23.9707 93.8823 23.2347 94.2343 22.584C94.5969 21.9333 95.0876 21.4267 95.7063 21.064C96.3356 20.7013 97.0396 20.52 97.8183 20.52C98.5969 20.52 99.2956 20.7013 99.9143 21.064C100.533 21.4267 101.018 21.9333 101.37 22.584C101.722 23.224 101.898 23.96 101.898 24.792L101.882 25.144ZM97.8183 21.496C97.0076 21.496 96.3249 21.7573 95.7703 22.28C95.2263 22.792 94.9169 23.464 94.8423 24.296H100.81C100.736 23.464 100.421 22.792 99.8663 22.28C99.3223 21.7573 98.6396 21.496 97.8183 21.496ZM113.821 20.584V29H112.781V22.344L109.373 27.976H108.861L105.453 22.328V29H104.413V20.584H105.565L109.133 26.648L112.765 20.584H113.821ZM120.59 23.56C121.646 23.5707 122.451 23.8053 123.006 24.264C123.56 24.7227 123.838 25.384 123.838 26.248C123.838 27.144 123.539 27.832 122.942 28.312C122.344 28.792 121.491 29.0267 120.382 29.016L117.054 29V20.584H118.19V23.528L120.59 23.56ZM125.246 20.584H126.382V29H125.246V20.584ZM120.318 28.152C121.096 28.1627 121.683 28.008 122.078 27.688C122.483 27.3573 122.686 26.8773 122.686 26.248C122.686 25.6293 122.488 25.1707 122.094 24.872C121.699 24.5733 121.107 24.4187 120.318 24.408L118.19 24.376V28.12L120.318 28.152Z" fill="#E4E5EA"/>
</svg>
