<svg width="89" height="36" viewBox="0 0 89 36" fill="none" xmlns="http://www.w3.org/2000/svg">
<path d="M4.7025 5.6C5.87583 5.664 6.7665 5.984 7.3745 6.56C7.99317 7.12533 8.3025 7.86667 8.3025 8.784C8.3025 9.424 8.14783 9.99467 7.8385 10.496C7.52917 10.9867 7.0705 11.376 6.4625 11.664C5.8545 11.952 5.11317 12.096 4.2385 12.096C3.42783 12.096 2.65983 11.968 1.9345 11.712C1.21983 11.4453 0.643833 11.0933 0.2065 10.656L0.7665 9.744C1.13983 10.128 1.63583 10.4427 2.2545 10.688C2.87317 10.9227 3.5345 11.04 4.2385 11.04C5.15583 11.04 5.86517 10.8427 6.3665 10.448C6.86783 10.0427 7.1185 9.488 7.1185 8.784C7.1185 8.09067 6.86783 7.54667 6.3665 7.152C5.86517 6.75733 5.10783 6.56 4.0945 6.56H3.2945V5.712L6.3985 1.824H0.6705V0.799999H7.8705V1.616L4.7025 5.6ZM14.3898 12.096C13.5258 12.096 12.7524 11.8667 12.0698 11.408C11.3978 10.9493 10.8698 10.2933 10.4858 9.44C10.1124 8.576 9.92575 7.56267 9.92575 6.4C9.92575 5.23733 10.1124 4.22933 10.4858 3.376C10.8698 2.512 11.3978 1.85067 12.0698 1.392C12.7524 0.933333 13.5258 0.704 14.3898 0.704C15.2538 0.704 16.0218 0.933333 16.6938 1.392C17.3764 1.85067 17.9098 2.512 18.2938 3.376C18.6778 4.22933 18.8698 5.23733 18.8698 6.4C18.8698 7.56267 18.6778 8.576 18.2938 9.44C17.9098 10.2933 17.3764 10.9493 16.6938 11.408C16.0218 11.8667 15.2538 12.096 14.3898 12.096ZM14.3898 11.04C15.0404 11.04 15.6111 10.8587 16.1018 10.496C16.6031 10.1333 16.9924 9.60533 17.2698 8.912C17.5471 8.21867 17.6858 7.38133 17.6858 6.4C17.6858 5.41867 17.5471 4.58133 17.2698 3.888C16.9924 3.19467 16.6031 2.66667 16.1018 2.304C15.6111 1.94133 15.0404 1.76 14.3898 1.76C13.7391 1.76 13.1631 1.94133 12.6618 2.304C12.1711 2.66667 11.7871 3.19467 11.5098 3.888C11.2324 4.58133 11.0938 5.41867 11.0938 6.4C11.0938 7.38133 11.2324 8.21867 11.5098 8.912C11.7871 9.60533 12.1711 10.1333 12.6618 10.496C13.1631 10.8587 13.7391 11.04 14.3898 11.04ZM31.443 4.592H26.627V12H25.491V3.584H31.443V4.592ZM36.1661 12.08C35.3555 12.08 34.6248 11.8987 33.9741 11.536C33.3235 11.1627 32.8115 10.6507 32.4381 10C32.0648 9.34933 31.8781 8.61333 31.8781 7.792C31.8781 6.97067 32.0648 6.23467 32.4381 5.584C32.8115 4.93333 33.3235 4.42667 33.9741 4.064C34.6248 3.70133 35.3555 3.52 36.1661 3.52C36.9768 3.52 37.7075 3.70133 38.3581 4.064C39.0088 4.42667 39.5155 4.93333 39.8781 5.584C40.2515 6.23467 40.4381 6.97067 40.4381 7.792C40.4381 8.61333 40.2515 9.34933 39.8781 10C39.5155 10.6507 39.0088 11.1627 38.3581 11.536C37.7075 11.8987 36.9768 12.08 36.1661 12.08ZM36.1661 11.072C36.7635 11.072 37.2968 10.9387 37.7661 10.672C38.2461 10.3947 38.6195 10.0053 38.8861 9.504C39.1528 9.00267 39.2861 8.432 39.2861 7.792C39.2861 7.152 39.1528 6.58133 38.8861 6.08C38.6195 5.57867 38.2461 5.19467 37.7661 4.928C37.2968 4.65067 36.7635 4.512 36.1661 4.512C35.5688 4.512 35.0301 4.65067 34.5501 4.928C34.0808 5.19467 33.7075 5.57867 33.4301 6.08C33.1635 6.58133 33.0301 7.152 33.0301 7.792C33.0301 8.432 33.1635 9.00267 33.4301 9.504C33.7075 10.0053 34.0808 10.3947 34.5501 10.672C35.0301 10.9387 35.5688 11.072 36.1661 11.072ZM48.4735 4.592H45.2895V12H44.1535V4.592H40.9695V3.584H48.4735V4.592ZM53.1974 12.08C52.3867 12.08 51.656 11.8987 51.0054 11.536C50.3547 11.1627 49.8427 10.6507 49.4694 10C49.096 9.34933 48.9094 8.61333 48.9094 7.792C48.9094 6.97067 49.096 6.23467 49.4694 5.584C49.8427 4.93333 50.3547 4.42667 51.0054 4.064C51.656 3.70133 52.3867 3.52 53.1974 3.52C54.008 3.52 54.7387 3.70133 55.3894 4.064C56.04 4.42667 56.5467 4.93333 56.9094 5.584C57.2827 6.23467 57.4694 6.97067 57.4694 7.792C57.4694 8.61333 57.2827 9.34933 56.9094 10C56.5467 10.6507 56.04 11.1627 55.3894 11.536C54.7387 11.8987 54.008 12.08 53.1974 12.08ZM53.1974 11.072C53.7947 11.072 54.328 10.9387 54.7974 10.672C55.2774 10.3947 55.6507 10.0053 55.9174 9.504C56.184 9.00267 56.3174 8.432 56.3174 7.792C56.3174 7.152 56.184 6.58133 55.9174 6.08C55.6507 5.57867 55.2774 5.19467 54.7974 4.928C54.328 4.65067 53.7947 4.512 53.1974 4.512C52.6 4.512 52.0614 4.65067 51.5814 4.928C51.112 5.19467 50.7387 5.57867 50.4614 6.08C50.1947 6.58133 50.0614 7.152 50.0614 7.792C50.0614 8.432 50.1947 9.00267 50.4614 9.504C50.7387 10.0053 51.112 10.3947 51.5814 10.672C52.0614 10.9387 52.6 11.072 53.1974 11.072ZM65.2573 7.648C66.3986 7.91467 66.9693 8.60267 66.9693 9.712C66.9693 10.448 66.6973 11.0133 66.1533 11.408C65.6093 11.8027 64.7986 12 63.7213 12H59.8973V3.584H63.6093C64.5693 3.584 65.3213 3.77067 65.8653 4.144C66.4093 4.51733 66.6813 5.05067 66.6813 5.744C66.6813 6.20267 66.5533 6.59733 66.2973 6.928C66.0519 7.248 65.7053 7.488 65.2573 7.648ZM61.0013 7.328H63.5293C64.1799 7.328 64.6759 7.20533 65.0173 6.96C65.3693 6.71467 65.5453 6.35733 65.5453 5.888C65.5453 5.41867 65.3693 5.06667 65.0173 4.832C64.6759 4.59733 64.1799 4.48 63.5293 4.48H61.0013V7.328ZM63.6733 11.104C64.3986 11.104 64.9426 10.9867 65.3053 10.752C65.6679 10.5173 65.8493 10.1493 65.8493 9.648C65.8493 9.14667 65.6839 8.77867 65.3533 8.544C65.0226 8.29867 64.4999 8.176 63.7853 8.176H61.0013V11.104H63.6733ZM73.1676 6.56C74.2236 6.57067 75.029 6.80533 75.5836 7.264C76.1383 7.72267 76.4156 8.384 76.4156 9.248C76.4156 10.144 76.117 10.832 75.5196 11.312C74.9223 11.792 74.069 12.0267 72.9596 12.016L69.6316 12V3.584H70.7676V6.528L73.1676 6.56ZM77.8236 3.584H78.9596V12H77.8236V3.584ZM72.8956 11.152C73.6743 11.1627 74.261 11.008 74.6556 10.688C75.061 10.3573 75.2636 9.87733 75.2636 9.248C75.2636 8.62933 75.0663 8.17067 74.6716 7.872C74.277 7.57333 73.685 7.41867 72.8956 7.408L70.7676 7.376V11.12L72.8956 11.152ZM87.4581 12L84.7861 8.48L82.0981 12H80.8181L84.1461 7.68L80.9781 3.584H82.2581L84.7861 6.88L87.3141 3.584H88.5621L85.3941 7.68L88.7541 12H87.4581ZM16.5145 23.52C17.3038 23.52 18.0185 23.7013 18.6585 24.064C19.2985 24.416 19.7998 24.9173 20.1625 25.568C20.5252 26.2187 20.7065 26.96 20.7065 27.792C20.7065 28.6347 20.5252 29.3813 20.1625 30.032C19.7998 30.6827 19.2985 31.1893 18.6585 31.552C18.0292 31.904 17.3145 32.08 16.5145 32.08C15.8318 32.08 15.2132 31.9413 14.6585 31.664C14.1145 31.376 13.6665 30.96 13.3145 30.416V35.104H12.1785V23.584H13.2665V25.248C13.6078 24.6933 14.0558 24.2667 14.6105 23.968C15.1758 23.6693 15.8105 23.52 16.5145 23.52ZM16.4345 31.072C17.0212 31.072 17.5545 30.9387 18.0345 30.672C18.5145 30.3947 18.8878 30.0053 19.1545 29.504C19.4318 29.0027 19.5705 28.432 19.5705 27.792C19.5705 27.152 19.4318 26.5867 19.1545 26.096C18.8878 25.5947 18.5145 25.2053 18.0345 24.928C17.5545 24.6507 17.0212 24.512 16.4345 24.512C15.8372 24.512 15.2985 24.6507 14.8185 24.928C14.3492 25.2053 13.9758 25.5947 13.6985 26.096C13.4318 26.5867 13.2985 27.152 13.2985 27.792C13.2985 28.432 13.4318 29.0027 13.6985 29.504C13.9758 30.0053 14.3492 30.3947 14.8185 30.672C15.2985 30.9387 15.8372 31.072 16.4345 31.072ZM30.5073 28.144H23.4673C23.5313 29.0187 23.8673 29.728 24.4753 30.272C25.0833 30.8053 25.8513 31.072 26.7793 31.072C27.3019 31.072 27.7819 30.9813 28.2193 30.8C28.6566 30.608 29.0353 30.3307 29.3553 29.968L29.9953 30.704C29.6219 31.152 29.1526 31.4933 28.5873 31.728C28.0326 31.9627 27.4193 32.08 26.7473 32.08C25.8833 32.08 25.1153 31.8987 24.4433 31.536C23.7819 31.1627 23.2646 30.6507 22.8913 30C22.5179 29.3493 22.3313 28.6133 22.3313 27.792C22.3313 26.9707 22.5073 26.2347 22.8593 25.584C23.2219 24.9333 23.7126 24.4267 24.3313 24.064C24.9606 23.7013 25.6646 23.52 26.4433 23.52C27.2219 23.52 27.9206 23.7013 28.5393 24.064C29.1579 24.4267 29.6433 24.9333 29.9953 25.584C30.3473 26.224 30.5233 26.96 30.5233 27.792L30.5073 28.144ZM26.4433 24.496C25.6326 24.496 24.9499 24.7573 24.3953 25.28C23.8513 25.792 23.5419 26.464 23.4673 27.296H29.4353C29.3606 26.464 29.0459 25.792 28.4913 25.28C27.9473 24.7573 27.2646 24.496 26.4433 24.496ZM44.6539 23.584V32H33.0379V23.584H34.1739V31.008H38.3019V23.584H39.4379V31.008H43.5179V23.584H44.6539ZM55.2573 28.144H48.2173C48.2813 29.0187 48.6173 29.728 49.2253 30.272C49.8333 30.8053 50.6013 31.072 51.5293 31.072C52.0519 31.072 52.5319 30.9813 52.9693 30.8C53.4066 30.608 53.7853 30.3307 54.1053 29.968L54.7453 30.704C54.3719 31.152 53.9026 31.4933 53.3373 31.728C52.7826 31.9627 52.1693 32.08 51.4973 32.08C50.6333 32.08 49.8653 31.8987 49.1933 31.536C48.5319 31.1627 48.0146 30.6507 47.6413 30C47.2679 29.3493 47.0813 28.6133 47.0813 27.792C47.0813 26.9707 47.2573 26.2347 47.6093 25.584C47.9719 24.9333 48.4626 24.4267 49.0813 24.064C49.7106 23.7013 50.4146 23.52 51.1933 23.52C51.9719 23.52 52.6706 23.7013 53.2893 24.064C53.9079 24.4267 54.3933 24.9333 54.7453 25.584C55.0973 26.224 55.2733 26.96 55.2733 27.792L55.2573 28.144ZM51.1933 24.496C50.3826 24.496 49.6999 24.7573 49.1453 25.28C48.6013 25.792 48.2919 26.464 48.2173 27.296H54.1853C54.1106 26.464 53.7959 25.792 53.2413 25.28C52.6973 24.7573 52.0146 24.496 51.1933 24.496ZM57.7879 23.584H58.9239V27.312H64.2199V23.584H65.3559V32H64.2199V28.288H58.9239V32H57.7879V23.584ZM68.5848 23.584H69.7208V30.272L75.3368 23.584H76.3448V32H75.2088V25.312L69.6088 32H68.5848V23.584ZM79.6004 23.584H80.7364V30.272L86.3524 23.584H87.3604V32H86.2244V25.312L80.6244 32H79.6004V23.584ZM83.4244 22.368C82.699 22.368 82.123 22.1867 81.6964 21.824C81.2697 21.4613 81.051 20.9493 81.0404 20.288H81.8564C81.867 20.704 82.0164 21.04 82.3044 21.296C82.5924 21.5413 82.9657 21.664 83.4244 21.664C83.883 21.664 84.2564 21.5413 84.5444 21.296C84.843 21.04 84.9977 20.704 85.0084 20.288H85.8244C85.8137 20.9493 85.5897 21.4613 85.1524 21.824C84.7257 22.1867 84.1497 22.368 83.4244 22.368Z" fill="#E4E5EA"/>
</svg>
