<svg width="83" height="21" viewBox="0 0 83 21" fill="none" xmlns="http://www.w3.org/2000/svg">
<path d="M5.49098 17.179C4.61314 17.179 3.82905 17.0277 3.13871 16.7251C2.45263 16.4226 1.9093 16.0028 1.50873 15.4659C1.11243 14.9247 0.899359 14.2983 0.86953 13.5866H2.87663C2.9022 13.9744 3.03217 14.3111 3.26655 14.5966C3.50518 14.8778 3.81626 15.0952 4.19979 15.2486C4.58331 15.402 5.00944 15.4787 5.47819 15.4787C5.99382 15.4787 6.44979 15.3892 6.84609 15.2102C7.24666 15.0312 7.55987 14.782 7.78572 14.4624C8.01158 14.1385 8.1245 13.7656 8.1245 13.3438C8.1245 12.9048 8.01158 12.5192 7.78572 12.1868C7.56413 11.8501 7.23814 11.5859 6.80774 11.3942C6.3816 11.2024 5.86598 11.1065 5.26086 11.1065H4.15504V9.49574H5.26086C5.74666 9.49574 6.1728 9.40838 6.53927 9.23366C6.91001 9.05895 7.19979 8.81605 7.40859 8.50497C7.6174 8.18963 7.7218 7.82102 7.7218 7.39915C7.7218 6.99432 7.63018 6.64276 7.44694 6.34446C7.26797 6.0419 7.01229 5.8054 6.6799 5.63494C6.35177 5.46449 5.96399 5.37926 5.51655 5.37926C5.09041 5.37926 4.69197 5.4581 4.32123 5.61577C3.95476 5.76918 3.65646 5.99077 3.42635 6.28054C3.19623 6.56605 3.07265 6.90909 3.05561 7.30966H1.14439C1.16569 6.60227 1.3745 5.98011 1.77081 5.44318C2.17138 4.90625 2.69979 4.48651 3.35604 4.18395C4.01229 3.88139 4.74098 3.73011 5.54212 3.73011C6.3816 3.73011 7.10604 3.89418 7.71541 4.2223C8.32905 4.54616 8.80206 4.97869 9.13444 5.51989C9.47109 6.06108 9.63729 6.65341 9.63302 7.29688C9.63729 8.02983 9.43274 8.65199 9.01939 9.16335C8.6103 9.67472 8.06484 10.0178 7.38302 10.1925V10.2947C8.25234 10.4268 8.92564 10.772 9.40291 11.3303C9.88444 11.8885 10.1231 12.581 10.1188 13.4077C10.1231 14.1278 9.9228 14.7734 9.51797 15.3445C9.1174 15.9155 8.56981 16.3651 7.87521 16.6932C7.18061 17.017 6.38587 17.179 5.49098 17.179ZM17.756 17.179C16.9549 17.179 16.2347 17.0256 15.5955 16.7188C14.9606 16.4077 14.4535 15.9815 14.0742 15.4403C13.695 14.8991 13.4925 14.2812 13.467 13.5866H15.3846C15.4315 14.1491 15.6808 14.6115 16.1325 14.9737C16.5842 15.3359 17.1254 15.517 17.756 15.517C18.2589 15.517 18.7042 15.402 19.092 15.1719C19.484 14.9375 19.7908 14.6158 20.0124 14.2067C20.2383 13.7976 20.3512 13.331 20.3512 12.8068C20.3512 12.2741 20.2361 11.799 20.006 11.3814C19.7759 10.9638 19.4585 10.6357 19.0536 10.397C18.6531 10.1584 18.1928 10.0369 17.6729 10.0327C17.2766 10.0327 16.8782 10.1009 16.4776 10.2372C16.0771 10.3736 15.7532 10.5526 15.506 10.7741L13.6971 10.5057L14.4322 3.90909H21.6296V5.60298H16.0749L15.6594 9.26562H15.7361C15.9918 9.01847 16.3306 8.81179 16.7525 8.6456C17.1786 8.4794 17.6346 8.39631 18.1204 8.39631C18.9173 8.39631 19.6268 8.58594 20.2489 8.9652C20.8754 9.34446 21.3675 9.86222 21.7255 10.5185C22.0877 11.1705 22.2667 11.9205 22.2624 12.7685C22.2667 13.6165 22.0749 14.3729 21.6871 15.0376C21.3036 15.7024 20.7709 16.2266 20.0891 16.6101C19.4116 16.9893 18.6339 17.179 17.756 17.179ZM30.349 20.1641V15.3253H31.2119C31.506 15.0781 31.7808 14.7266 32.0365 14.2706C32.2922 13.8146 32.5095 13.1989 32.6885 12.4233C32.8675 11.6477 32.9911 10.6527 33.0592 9.43821L33.3661 3.90909H41.4392V15.3253H42.9222V20.1449H41.0301V17H32.2411V20.1641H30.349ZM33.5386 15.3253H39.5472V5.60938H35.1558L34.9513 9.43821C34.8959 10.3629 34.8043 11.1939 34.6764 11.9311C34.5528 12.6683 34.393 13.3203 34.197 13.8871C34.0053 14.4496 33.7858 14.929 33.5386 15.3253ZM45.9859 17V3.90909H47.961V9.59801H54.4873V3.90909H56.4688V17H54.4873V11.2919H47.961V17H45.9859ZM60.2452 17V3.90909H68.4526V5.60938H62.2204V9.59801H68.0244V11.2919H62.2204V15.2997H68.5293V17H60.2452ZM71.9909 3.90909H73.9469V13.5227H74.0684L80.7289 3.90909H82.557V17H80.5819V7.39915H80.4604L73.8127 17H71.9909V3.90909ZM78.53 0.585226H80.1025C80.1025 1.3054 79.8468 1.89134 79.3354 2.34304C78.8283 2.79048 78.1422 3.0142 77.2772 3.0142C76.4164 3.0142 75.7324 2.79048 75.2253 2.34304C74.7182 1.89134 74.4647 1.3054 74.4647 0.585226H76.0307C76.0307 0.904829 76.1245 1.18821 76.312 1.43537C76.4995 1.67827 76.8212 1.79972 77.2772 1.79972C77.7246 1.79972 78.0442 1.67827 78.236 1.43537C78.432 1.19247 78.53 0.909091 78.53 0.585226Z" fill="#E4E5EA"/>
</svg>
